<svg width="45" height="43" viewBox="0 0 45 43" fill="none" xmlns="http://www.w3.org/2000/svg">
<path d="M22.5002 35.0701C30.2202 35.0701 36.4783 28.8101 36.4783 21.0901C36.4783 13.3701 30.2202 7.11011 22.5002 7.11011C14.7802 7.11011 8.52124 13.3701 8.52124 21.0901C8.52124 28.8101 14.7802 35.0701 22.5002 35.0701Z" fill="#2FDF84"/>
<path d="M42.5052 24.0701C42.0282 23.9801 41.5682 24.29 41.4762 24.77C39.7292 33.84 31.7482 40.4202 22.5002 40.4202C13.4472 40.4202 5.60824 34.1101 3.64324 25.3401L3.87224 25.5701C4.04424 25.7401 4.26925 25.8301 4.49425 25.8301C4.71925 25.8301 4.94422 25.7401 5.11522 25.5701C5.45822 25.2301 5.45822 24.6701 5.11522 24.3301L3.30821 22.52C3.14321 22.35 2.91921 22.26 2.68621 22.26C2.45321 22.26 2.23023 22.35 2.06523 22.52L0.25725 24.3301C-0.08575 24.6701 -0.08575 25.2301 0.25725 25.5701C0.60125 25.9101 1.15723 25.9101 1.50023 25.5701L1.82622 25.24C3.78722 35.06 12.4592 42.1802 22.5002 42.1802C32.5892 42.1802 41.2963 35.0001 43.2023 25.1001C43.2943 24.6301 42.9822 24.1701 42.5052 24.0701Z" fill="#00B871"/>
<path d="M44.7422 16.6101C44.3992 16.2701 43.8422 16.2701 43.4992 16.6101L43.1742 16.9402C41.2122 7.12019 32.5412 0 22.5002 0C12.4102 0 3.70419 7.18008 1.79819 17.0801C1.70619 17.5501 2.01823 18.0101 2.49423 18.1101C2.97223 18.2001 3.4322 17.8902 3.5242 17.4102C5.2712 8.34016 13.2522 1.76001 22.5002 1.76001C31.5532 1.76001 39.3922 8.07009 41.3572 16.8401L41.1272 16.6101C40.7842 16.2701 40.2282 16.2701 39.8842 16.6101C39.5412 16.9501 39.5412 17.5101 39.8842 17.8501L41.6922 19.6602C41.8572 19.8302 42.0802 19.9202 42.3132 19.9202C42.5462 19.9202 42.7702 19.8302 42.9352 19.6602L44.7422 17.8501C45.0862 17.5101 45.0862 16.9501 44.7422 16.6101Z" fill="#00B871"/>
<path d="M23.4273 24.9603C23.5343 25.0103 23.6443 25.0301 23.7523 25.0301C24.1013 25.0301 24.4323 24.82 24.5693 24.47L27.0013 18.3602C27.1813 17.9102 26.9603 17.39 26.5093 17.22C26.0593 17.04 25.5473 17.2603 25.3683 17.7103L22.9353 23.8201C22.7563 24.2701 22.9763 24.7803 23.4273 24.9603Z" fill="#00B871"/>
<path d="M28.3942 18.9102H30.4122L28.2653 23.79C28.0703 24.24 28.2722 24.7602 28.7162 24.9502C28.8312 25.0002 28.9513 25.03 29.0703 25.03C29.4083 25.03 29.7302 24.83 29.8752 24.5L32.5632 18.3901C32.6822 18.1101 32.6573 17.8 32.4943 17.55C32.3323 17.3 32.0552 17.1501 31.7582 17.1501H28.3942C27.9092 17.1501 27.5153 17.55 27.5153 18.03C27.5153 18.52 27.9092 18.9102 28.3942 18.9102Z" fill="#00B871"/>
<path d="M17.1442 22.79C17.3022 23.06 17.5892 23.22 17.9002 23.22H20.0742C20.0712 23.55 20.0692 23.8601 20.0662 24.1401C20.0622 24.6301 20.4522 25.02 20.9382 25.03H20.9452C21.4272 25.03 21.8202 24.6401 21.8242 24.1601C21.8262 23.9301 21.8292 23.6 21.8322 23.22C22.2742 23.17 22.6202 22.8001 22.6202 22.3401C22.6202 21.8901 22.2812 21.52 21.8432 21.47C21.8512 20.04 21.8542 18.6001 21.8362 18.3801C21.7892 17.8201 21.4442 17.3602 20.9572 17.2002C20.4702 17.0502 19.9592 17.2402 19.5882 17.6902C19.2402 18.1202 17.7542 20.7902 17.1312 21.9202C16.9812 22.1902 16.9852 22.52 17.1442 22.79ZM20.0912 20.24C20.0892 20.62 20.0882 21.0302 20.0852 21.4602H19.3952C19.6402 21.0302 19.8772 20.61 20.0912 20.24Z" fill="#00B871"/>
<path d="M16.6123 25.0701C17.0973 25.0701 17.4863 24.6702 17.4803 24.1802C17.4743 23.7002 17.0813 23.3101 16.6013 23.3101C16.5973 23.3101 16.5943 23.3101 16.5903 23.3101C16.1093 23.3201 15.6033 23.3301 15.1463 23.3301C15.4633 22.9001 15.8693 22.3401 16.3813 21.6101C16.7863 21.0301 17.0503 20.48 17.1683 19.97C17.1963 19.86 17.2203 19.7 17.2213 19.54C17.2233 18.19 16.1243 17.0901 14.7773 17.0901C13.6123 17.0901 12.6033 17.9201 12.3793 19.0601C12.2853 19.5401 12.5963 20.0001 13.0723 20.1001C13.5493 20.1901 14.0103 19.8801 14.1043 19.4001C14.1673 19.0801 14.4503 18.8501 14.7773 18.8501C15.1403 18.8501 15.4383 19.14 15.4613 19.49L15.4463 19.6101C15.3943 19.8101 15.2633 20.1401 14.9413 20.6001C13.9753 21.9801 13.3983 22.7301 13.0883 23.1401C12.6913 23.6601 12.4733 23.9502 12.6193 24.4202C12.7053 24.7002 12.9242 24.92 13.2072 25.02C13.3242 25.06 13.4183 25.0901 14.6183 25.0901C15.0903 25.0901 15.7313 25.0801 16.6123 25.0701Z" fill="#00B871"/>
</svg>
