<svg width="117" height="25" viewBox="0 0 117 25" fill="none" xmlns="http://www.w3.org/2000/svg">
<path fill-rule="evenodd" clip-rule="evenodd" d="M15.1302 5.867C13.0702 5.719 11.3242 6.98401 10.3502 6.98401C9.36124 6.98401 7.83623 5.899 6.22023 5.927C4.09723 5.959 2.14022 7.12602 1.04622 8.97302C-1.15878 12.69 0.484213 18.198 2.63121 21.208C3.68121 22.688 4.93421 24.348 6.57921 24.288C8.16421 24.218 8.76223 23.288 10.6772 23.288C12.5902 23.288 13.1312 24.288 14.8052 24.248C16.5092 24.218 17.5912 22.748 18.6322 21.268C19.8392 19.558 20.3362 17.898 20.3652 17.808C20.3262 17.798 17.0412 16.578 17.0092 12.899C16.9792 9.82799 19.5912 8.35002 19.7112 8.27802C18.2272 6.15902 15.9372 5.925 15.1302 5.867ZM97.4262 17.868V18.188C97.4262 21.398 95.0102 24.268 90.1612 24.268C85.3252 24.268 82.4512 21.318 82.4512 16.168V14.016C82.4512 8.91799 85.3392 5.87799 90.1732 5.87799C94.7132 5.87799 97.4262 8.657 97.4262 12.125V12.308H93.7852C93.7852 10.548 92.6312 8.98199 90.2002 8.98199C87.6082 8.98199 86.3042 10.664 86.3042 14.016V16.168C86.3042 19.558 87.5952 21.138 90.2262 21.138C92.8462 21.138 93.7852 19.698 93.7852 17.868H97.4262ZM31.2262 18.878H31.2792L34.5442 6.16602H38.3982L41.6752 18.878H41.7292L44.7652 6.16602H48.8212L43.7313 23.968H39.8752L36.5042 11.799H36.4372L33.0652 23.968H29.2382L24.1342 6.16602H28.1912L31.2262 18.878ZM105.269 13.312H112.763V6.16602H116.578V23.968H112.763V16.378H105.269V23.968H101.469V6.16602H105.269V13.312ZM79.9932 6.16602V9.24304H74.5272V23.968H70.7392V9.24304H65.2872V6.16602H79.9932ZM59.4572 6.16602L65.3532 23.968H61.2833L59.9762 19.478H54.1772L52.8492 23.968H49.0482L54.9582 6.16602H59.4572ZM59.1812 16.738L57.1212 9.67401H57.0812L54.9892 16.738H59.1812ZM13.7752 3.97198C12.8962 4.95098 11.5102 5.69703 10.1502 5.59503C9.95723 4.20203 10.6682 2.74799 11.4772 1.83899C12.3792 0.813989 13.9012 0.048 15.1602 0C15.3222 1.42 14.7332 2.851 13.8582 3.875L13.8172 3.92401L13.7752 3.97198Z" fill="#D2D6DC"/>
</svg>
