<svg width="117" height="25" viewBox="0 0 117 25" fill="none" xmlns="http://www.w3.org/2000/svg">
<path fill-rule="evenodd" clip-rule="evenodd" d="M81.9224 15.748C80.2284 15.328 80.2284 15.308 80.2284 14.404C80.2284 13.796 80.2904 13.506 81.6864 13.506C82.6444 13.506 84.0544 13.665 84.9614 13.819C85.0854 13.837 85.2124 13.81 85.3144 13.731C85.4164 13.66 85.4824 13.545 85.4964 13.421L85.7554 11.4C85.7734 11.17 85.6274 10.958 85.3914 10.905C84.3344 10.67 82.8774 10.516 81.6754 10.516C77.4674 10.516 76.6114 12.055 76.6114 14.366C76.6114 16.908 77.0934 17.758 80.3124 18.518C82.4324 19.018 82.4324 19.388 82.4324 19.998C82.4324 20.798 82.3604 21.078 80.9754 21.078C79.8574 21.078 78.5634 20.908 77.4274 20.608C77.2994 20.578 77.1724 20.598 77.0634 20.668C76.9534 20.728 76.8754 20.838 76.8514 20.968L76.5034 22.898C76.4614 23.118 76.5944 23.328 76.8134 23.398C78.0554 23.788 79.8374 24.058 81.1454 24.058C85.2144 24.058 86.0454 22.388 86.0454 19.918C86.0454 17.178 85.5454 16.658 81.9174 15.728L81.9224 15.748ZM71.3704 15.748C69.6764 15.328 69.6764 15.308 69.6764 14.404C69.6764 13.796 69.7384 13.506 71.1334 13.506C72.0904 13.506 73.5014 13.665 74.4094 13.819C74.5324 13.837 74.6604 13.81 74.7624 13.731C74.8644 13.66 74.9304 13.545 74.9444 13.421L75.2034 11.4C75.2324 11.17 75.0794 10.958 74.8484 10.905C73.8094 10.67 72.3524 10.516 71.1504 10.516C66.9534 10.516 66.0864 12.055 66.0864 14.366C66.0864 16.908 66.5784 17.758 69.7954 18.518C71.9154 19.018 71.9155 19.388 71.9155 19.998C71.9155 20.798 71.8424 21.078 70.4584 21.078C69.3374 21.078 68.0444 20.908 66.9064 20.608C66.7784 20.578 66.6514 20.598 66.5414 20.668C66.4324 20.728 66.3544 20.838 66.3304 20.968L65.9664 22.888C65.9294 23.108 66.0574 23.318 66.2814 23.388C67.5194 23.778 69.3014 24.048 70.6114 24.048C74.6734 24.048 75.5114 22.388 75.5114 19.908C75.5114 17.168 75.0044 16.648 71.3764 15.718L71.3704 15.738V15.748ZM34.0204 6.45703C33.9594 6.26903 33.7835 6.14203 33.5795 6.14203H29.2645C29.0645 6.14203 28.8824 6.26804 28.8224 6.45404L23.3784 23.198C23.3364 23.338 23.3604 23.488 23.4474 23.598C23.5354 23.718 23.6734 23.788 23.8214 23.788H26.7905C26.9965 23.788 27.1764 23.648 27.2344 23.468L30.9844 11.138C30.9844 11.138 31.0844 10.828 31.4214 10.828C31.7674 10.828 31.8584 11.146 31.8584 11.146L33.5984 16.988H31.2664C31.0664 16.988 30.8845 17.128 30.8295 17.318L30.1554 19.638C30.1194 19.768 30.1554 19.918 30.2284 20.028C30.3194 20.138 30.4654 20.198 30.6114 20.198H34.5914L35.6384 23.468C35.6964 23.658 35.8754 23.778 36.0754 23.778H39.0444C39.1904 23.778 39.3324 23.708 39.4204 23.598C39.5114 23.478 39.5364 23.328 39.4924 23.198L34.0434 6.427L34.0254 6.45502L34.0204 6.45703ZM90.7604 10.785H88.0284C87.7734 10.785 87.5674 10.985 87.5674 11.233V23.368C87.5674 23.618 87.7754 23.818 88.0304 23.818H90.7624C91.0174 23.818 91.2244 23.618 91.2244 23.368V11.238C91.2244 10.99 91.0244 10.793 90.7694 10.793L90.7604 10.785ZM52.0164 5.815H49.2844C49.0294 5.815 48.8234 6.015 48.8234 6.263V23.368C48.8234 23.618 49.0314 23.818 49.2864 23.818H52.0184C52.2734 23.818 52.4794 23.618 52.4794 23.368V6.26703C52.4794 6.02003 52.2794 5.823 52.0244 5.823L52.0164 5.815ZM113.439 10.524C111.995 10.524 110.023 11.008 108.357 11.769L108.156 11.115C108.102 10.92 107.919 10.792 107.714 10.792H105.693C105.438 10.792 105.228 10.993 105.228 11.24V23.378C105.228 23.618 105.428 23.828 105.683 23.828H108.416C108.671 23.828 108.88 23.628 108.88 23.378V14.968C109.864 14.486 111.248 13.982 112.071 13.982C112.686 13.982 112.914 14.206 112.914 14.808V23.368C112.914 23.618 113.124 23.818 113.379 23.818H116.111C116.366 23.818 116.572 23.618 116.572 23.368V14.457C116.572 11.852 115.515 10.53 113.437 10.53H113.435L113.439 10.524ZM10.1674 17.738C10.0944 17.668 9.99045 17.588 9.81145 17.588C9.58445 17.588 9.45144 17.748 9.40044 17.818C8.12544 19.708 7.4694 21.498 7.3784 23.288C7.3754 23.428 7.42639 23.558 7.51939 23.658C7.61039 23.758 7.74741 23.818 7.88341 23.818H10.9114C11.1754 23.818 11.3934 23.618 11.4124 23.368C11.4844 22.508 11.7584 21.638 12.2684 20.738C12.4414 20.418 12.3045 20.128 12.2045 19.998C11.7035 19.368 11.0904 18.688 10.1794 17.768L10.1764 17.748L10.1674 17.738ZM60.8754 19.028V20.588C60.4294 20.838 59.6094 21.178 58.6174 21.178C57.7704 21.178 57.5064 20.928 57.5064 20.098C57.5064 19.298 57.6704 19.048 58.6714 19.048H60.8754V19.028ZM99.6924 19.028V20.588C99.2374 20.838 98.4174 21.178 97.4344 21.178C96.5874 21.178 96.3234 20.928 96.3234 20.098C96.3234 19.298 96.4874 19.048 97.4884 19.048H99.6924V19.028ZM46.9684 21.228C46.9504 21.098 46.8774 20.988 46.7684 20.918C46.6584 20.848 46.5294 20.828 46.4014 20.858C45.9104 20.968 45.4544 21.038 45.0904 21.038C44.4164 21.038 44.1064 20.748 44.1064 20.118V13.686H46.7574C47.0124 13.686 47.2194 13.483 47.2194 13.235V11.228C47.2194 10.98 47.0104 10.777 46.7554 10.777H44.1144V7.69104C44.1144 7.55904 44.0524 7.43701 43.9504 7.35101C43.8504 7.26501 43.7134 7.227 43.5854 7.245L40.8534 7.61603C40.6244 7.64503 40.4524 7.83404 40.4524 8.05804V10.782H38.9614C38.7064 10.782 38.4994 10.983 38.4994 11.23V13.247C38.4994 13.494 38.7174 13.7 38.9724 13.7H40.4594V20.538C40.4594 22.888 41.7284 24.078 44.2354 24.078C44.9454 24.078 46.1584 23.918 46.9494 23.648C47.1584 23.578 47.2884 23.368 47.2534 23.158L46.9574 21.238L46.9664 21.218L46.9684 21.228ZM59.0444 10.53C57.6604 10.53 55.9764 10.742 54.7544 11.069C54.5174 11.131 54.3724 11.348 54.4084 11.574L54.7234 13.501C54.7414 13.619 54.8144 13.725 54.9144 13.796C55.0164 13.867 55.1444 13.884 55.2684 13.867C56.4034 13.654 57.5764 13.531 58.5684 13.531C60.5364 13.531 60.8534 13.937 60.8534 15.228V16.358H57.9384C55.1444 16.358 53.9494 17.478 53.9494 20.108C53.9494 22.618 55.2614 24.058 57.5374 24.058C58.8624 24.058 60.1844 23.698 61.2954 23.048L61.4144 23.458C61.4684 23.658 61.6504 23.788 61.8604 23.788H64.0795C64.3345 23.788 64.5394 23.578 64.5394 23.338V15.268C64.5394 11.803 63.0554 10.511 59.0574 10.511L59.0405 10.52L59.0444 10.53ZM97.8544 10.53C96.4704 10.53 94.7944 10.742 93.5744 11.069C93.3464 11.131 93.2004 11.348 93.2414 11.574L93.5604 13.501C93.5784 13.619 93.6514 13.725 93.7514 13.796C93.8554 13.867 93.9834 13.884 94.1074 13.867C95.2364 13.654 96.4024 13.531 97.4044 13.531C99.3714 13.531 99.6814 13.937 99.6814 15.228V16.358H96.7664C93.9614 16.358 92.7664 17.478 92.7664 20.108C92.7664 22.618 94.0754 24.058 96.3544 24.058C97.6784 24.058 98.9964 23.698 100.107 23.048L100.225 23.458C100.28 23.658 100.462 23.788 100.671 23.788H102.876C103.131 23.788 103.34 23.578 103.34 23.338V15.268C103.34 11.803 101.855 10.511 97.8574 10.511L97.8624 10.52L97.8544 10.53ZM22.4494 5.896C22.3584 5.83 22.2534 5.79602 22.1464 5.79602C22.0734 5.79602 22.0184 5.807 21.9644 5.828C20.8714 6.229 19.7784 6.53501 18.7764 6.76001C18.5764 6.81301 18.3974 6.95504 18.3394 7.13104C17.6104 9.07704 15.7344 10.934 13.7854 12.862C13.7124 12.933 13.6034 13.039 13.4214 13.039C13.2394 13.039 13.1294 12.951 13.0564 12.874C11.0894 10.938 9.2314 9.09802 8.5034 7.15302C8.4304 6.97602 8.26641 6.83401 8.06541 6.78101C7.06441 6.55101 5.9524 6.24199 4.8784 5.84399C4.8234 5.82599 4.7544 5.81702 4.6964 5.81702C4.5864 5.81702 4.4814 5.85299 4.3914 5.91699C4.2534 6.01399 4.18241 6.18204 4.19841 6.34204C4.36241 7.95704 5.02741 9.53399 6.21141 11.188C7.33141 12.744 8.77945 14.186 10.1915 15.578C12.7785 18.138 15.2284 20.568 15.4444 23.378C15.4634 23.628 15.6814 23.828 15.9404 23.828H18.9824C19.1184 23.828 19.2514 23.768 19.3464 23.678C19.4414 23.578 19.4924 23.448 19.4834 23.318C19.3864 21.438 18.6584 19.558 17.2554 17.568C16.9644 17.148 16.6544 16.738 16.3234 16.348C16.1904 16.188 16.2474 15.978 16.3494 15.888L16.6594 15.578C18.0674 14.19 19.5185 12.749 20.6395 11.192C21.8235 9.54302 22.4784 7.97301 22.6474 6.35901C22.6654 6.19601 22.5895 6.02303 22.4545 5.92303L22.4634 5.91003L22.4494 5.896ZM13.4334 7.34601C14.3864 7.34601 14.9404 7.28699 15.1334 7.28699C15.3524 7.28699 15.5884 7.464 15.5884 7.729C15.5884 7.8 15.5704 7.85301 15.5524 7.90601C15.4244 8.23201 14.8424 9.413 13.7674 10.427C13.6394 10.54 13.5124 10.561 13.4214 10.561C13.3304 10.561 13.1844 10.54 13.0624 10.427C11.9874 9.413 11.4124 8.23302 11.2864 7.90302C11.2684 7.85002 11.2494 7.79604 11.2494 7.71704C11.2494 7.46004 11.4744 7.26599 11.7084 7.26599C11.9034 7.26599 12.4554 7.31903 13.4104 7.31903H13.4134L13.4324 7.33704L13.4334 7.34601ZM90.7594 5.81903H88.0344C87.7794 5.81903 87.5714 6.01399 87.5714 6.26099V8.59601C87.5714 8.84401 87.7794 9.04504 88.0344 9.04504H90.7664C91.0214 9.04504 91.2284 8.85103 91.2284 8.60303V6.25C91.2284 6.002 91.0214 5.80304 90.7664 5.80304L90.7594 5.82404V5.81903ZM26.7394 0.249023C26.6184 0.0900234 26.4294 0.00201416 26.2294 0.00201416C26.1264 0.00201416 26.0244 0.0230215 25.9374 0.0720215C22.2034 2.05302 17.8805 3.102 13.4285 3.104C8.97845 3.104 4.65445 2.05304 0.923446 0.0710449C0.832446 0.0180449 0.732431 0 0.632431 0C0.431431 0 0.240421 0.0879858 0.122421 0.247986C-0.0545792 0.459986 -0.0595983 0.849041 0.240402 1.07904C2.1074 2.42304 4.1674 3.48405 6.3604 4.20905C8.6374 4.95205 11.0135 5.341 13.4285 5.341C15.8455 5.341 18.2224 4.95205 20.4964 4.20905C22.6914 3.48405 24.7514 2.42304 26.6214 1.07904C26.9224 0.849041 26.9134 0.460042 26.7404 0.230042L26.7394 0.249023Z" fill="#00B871"/>
</svg>
