<svg width="117" height="29" viewBox="0 0 117 29" fill="none" xmlns="http://www.w3.org/2000/svg">
<path fill-rule="evenodd" clip-rule="evenodd" d="M105.42 17.6411C105.42 15.3331 104.45 12.667 101.44 8.95001L94.1599 0H84.0299L89.7999 6.27905C90.7699 7.32605 92 8.26703 92 8.26703C90.6 7.48203 88.8299 7.16803 87.4199 7.16803C84.0799 7.16803 80.6899 7.84901 77.6699 9.47101C74.4399 11.198 72.2799 14.076 72.2799 17.901C72.2799 20.831 73.63 23.081 75.35 24.801C79.23 28.571 86.29 28.941 88.88 28.941C92.71 28.941 98.69 28.101 102.08 25.121C104.08 23.341 105.43 20.8811 105.43 17.6411H105.42ZM116.58 7.74506H107.79V28.261H116.58V7.74506ZM44.36 28.261L24.95 0H14.0699L17.08 3.453L0 28.261H9.80994L12.74 23.601H31.24L34.23 28.261H44.36ZM70.0699 19.681V7.74506H61.5499V16.9041C61.5499 19.5211 61.4399 20.251 61.2799 20.931C60.6899 22.811 58.6399 23.651 56.5399 23.651C53.6299 23.651 52.28 22.551 51.74 20.821C51.58 20.251 51.53 19.621 51.47 18.991C51.42 18.311 51.47 17.5811 51.47 16.7971V7.74506H42.85V19.731C42.85 22.401 43.7599 24.391 45.2699 25.751C47.8599 28.211 52.2299 28.941 56.2699 28.941C61.1799 28.941 64.95 28.261 67.64 25.691C69.05 24.391 70.0699 22.661 70.0699 19.681ZM97.0199 17.901C97.0199 20.041 95.56 21.661 93.73 22.551C92.22 23.341 90.44 23.551 88.88 23.551C87.31 23.551 85.48 23.241 83.97 22.501C82.14 21.611 80.74 19.891 80.74 18.001C80.74 15.752 82.52 13.973 84.62 13.082C85.91 12.506 87.48 12.2971 88.71 12.2971C89.9 12.2971 91.63 12.453 92.97 12.978C95.4 13.973 97.0199 15.856 97.0199 17.901ZM27.8199 18.091H16.09L21.9399 8.72601L27.8199 18.091Z" fill="#D2D6DC"/>
</svg>
