<svg width="117" height="29" viewBox="0 0 117 29" fill="none" xmlns="http://www.w3.org/2000/svg">
<path fill-rule="evenodd" clip-rule="evenodd" d="M14.932 23.201C14.762 23.201 14.677 23.281 14.677 23.281C14.677 23.281 12.543 24.941 8.702 24.941C4.864 24.941 2.73199 23.281 2.73199 23.281C2.73199 23.281 2.56199 23.201 2.47699 23.201C2.30599 23.201 2.13501 23.281 2.13501 23.531V23.611C2.47601 25.351 2.73199 26.601 2.73199 26.761C2.98699 28.001 5.548 29.001 8.62 29.001C11.692 29.001 14.252 28.001 14.508 26.761C14.508 26.601 14.763 25.351 15.1 23.611V23.531C15.182 23.361 15.1 23.201 14.927 23.201H14.932ZM32.253 19.1411C33.362 18.5611 33.79 17.731 33.79 16.488V14.748C33.79 12.263 32.253 11.022 29.011 11.022H22.526C22.271 11.022 22.1 11.188 22.1 11.437V27.671C22.1 27.921 22.27 28.091 22.526 28.091H29.523C32.595 28.091 34.386 26.601 34.386 24.031V22.291C34.386 20.801 33.618 19.6411 32.253 19.1411ZM38.909 15.4951H36.268C36.013 15.4951 35.84 15.661 35.84 15.91V27.671C35.84 27.921 36.013 28.091 36.268 28.091H38.918C39.173 28.091 39.346 27.921 39.346 27.671V15.91C39.346 15.662 39.173 15.494 38.918 15.494L38.909 15.4951ZM102.481 15.247C98.901 15.247 97.107 16.987 97.107 20.221V23.451C97.107 26.761 98.901 28.341 102.654 28.341C104.193 28.341 105.814 28.091 107.18 27.591C107.351 27.511 107.521 27.341 107.435 27.091L107.009 25.2711C107.009 25.1911 106.924 25.0211 106.839 25.0211C106.753 24.9411 106.584 24.941 106.497 24.941C105.304 25.271 104.109 25.441 103 25.441C101.037 25.441 100.696 24.861 100.696 23.531V23.121H107.266C107.521 23.121 107.694 22.951 107.694 22.701V20.381C107.608 16.904 105.987 15.2451 102.489 15.2451L102.481 15.247ZM55.64 25.351C54.957 25.351 54.447 25.3511 53.937 25.2711V18.8911C54.705 18.5511 55.729 18.221 56.496 18.221C57.521 18.221 57.948 18.641 57.948 19.551V23.2711C57.948 24.6811 57.606 25.341 55.643 25.341L55.64 25.351ZM116.306 25.601C116.306 25.521 116.224 25.3511 116.139 25.2711C116.054 25.1811 115.884 25.181 115.798 25.181C115.286 25.261 114.86 25.351 114.518 25.351C113.835 25.351 113.58 25.101 113.58 24.441V18.221H116.139C116.394 18.221 116.564 18.051 116.564 17.811V15.906C116.564 15.658 116.394 15.4901 116.139 15.4901H113.579V12.51C113.579 12.342 113.492 12.258 113.406 12.176C113.321 12.093 113.151 12.093 113.065 12.093L110.421 12.429C110.166 12.429 109.993 12.676 109.993 12.842V15.493H108.545C108.29 15.493 108.116 15.6591 108.116 15.9091V17.811C108.116 18.061 108.29 18.231 108.545 18.231H109.993V24.851C109.993 27.091 111.189 28.251 113.663 28.251C114.346 28.251 115.539 28.0911 116.308 27.8311C116.479 27.7511 116.65 27.591 116.563 27.341L116.308 25.601H116.306ZM48.816 25.601C48.816 25.521 48.732 25.3511 48.646 25.2711C48.561 25.1811 48.391 25.181 48.305 25.181C47.877 25.261 47.367 25.351 47.026 25.351C46.343 25.351 46.088 25.101 46.088 24.441V18.221H48.647C48.902 18.221 49.075 18.051 49.075 17.811V15.906C49.075 15.658 48.902 15.4901 48.647 15.4901H46.085V12.51C46.085 12.342 45.999 12.258 45.914 12.176C45.828 12.093 45.659 12.093 45.572 12.093L42.929 12.429C42.674 12.429 42.504 12.676 42.504 12.842V15.493H41.048C40.793 15.493 40.62 15.6591 40.62 15.9091V17.811C40.62 18.061 40.792 18.231 41.048 18.231H42.498V24.851C42.498 27.091 43.691 28.251 46.166 28.251C46.849 28.251 48.042 28.0911 48.807 27.8311C48.98 27.7511 49.149 27.591 49.062 27.341L48.807 25.601H48.816ZM84.227 25.441C84.227 25.351 84.141 25.191 84.057 25.111C83.972 25.021 83.802 25.0211 83.716 25.0211C82.948 25.1911 82.181 25.2711 81.412 25.2711C79.706 25.2711 79.279 24.861 79.279 23.451V20.051C79.279 18.641 79.791 18.231 81.412 18.231C81.84 18.231 82.778 18.311 83.716 18.481C83.801 18.481 83.971 18.4811 84.057 18.3911C84.14 18.3111 84.226 18.231 84.226 18.061L84.569 16.075C84.569 15.827 84.483 15.661 84.227 15.578C83.204 15.246 82.009 15.162 81.327 15.162C77.316 15.162 75.694 16.572 75.694 20.051V23.361C75.694 26.841 77.315 28.251 81.324 28.251C82.262 28.251 83.372 28.091 84.225 27.841C84.48 27.761 84.567 27.591 84.567 27.341L84.224 25.441H84.227ZM25.692 25.111H28.85C30.217 25.111 30.727 24.771 30.727 23.701V22.451C30.727 21.371 30.302 20.951 29.105 20.951H27.994C27.739 20.951 27.566 20.791 27.566 20.541V18.481C27.566 18.231 27.739 18.061 27.994 18.061H28.592C29.701 18.061 30.127 17.651 30.127 16.657V15.164C30.127 14.584 29.962 14.004 28.597 14.004H25.684V25.111H25.692ZM73.644 15.4951H71.003C70.748 15.4951 70.575 15.661 70.575 15.91V24.031C69.636 24.521 68.27 25.0211 67.505 25.0211C66.907 25.0211 66.649 24.771 66.649 24.191V15.916C66.649 15.668 66.476 15.5 66.221 15.5H63.572C63.317 15.5 63.145 15.668 63.145 15.916V24.531C63.145 27.021 64.167 28.341 66.215 28.341C67.581 28.341 69.543 27.841 71.164 27.101L71.334 27.761C71.423 27.931 71.594 28.101 71.762 28.101H73.727C73.982 28.101 74.153 27.931 74.153 27.681V15.91C74.067 15.741 73.898 15.494 73.641 15.494L73.644 15.4951ZM8.70599 9.53101C3.92499 9.53101 0 10.771 0 12.346C0 12.761 1.02399 18.6411 1.45099 20.9611C1.62099 22.0411 4.438 23.531 8.703 23.531C12.969 23.531 15.7 22.041 15.956 20.971C16.375 18.651 17.404 12.768 17.404 12.353C17.313 10.778 13.478 9.53705 8.69699 9.53705L8.70599 9.53101ZM8.70599 21.631C7.17099 21.631 5.97601 20.461 5.97601 18.971C5.97601 17.481 7.16999 16.322 8.70499 16.322C10.241 16.322 11.436 17.481 11.436 18.971C11.436 20.381 10.241 21.621 8.70499 21.621L8.70599 21.631ZM96.593 27.341L93.094 21.7111L96.51 16.164C96.594 15.996 96.594 15.835 96.51 15.749C96.423 15.587 96.253 15.501 96.082 15.501H93.181C93.01 15.501 92.838 15.587 92.753 15.749L89.51 21.221V11.105C89.51 10.855 89.337 10.689 89.082 10.689H86.437C86.182 10.689 86.008 10.855 86.008 11.105V27.591C86.008 27.841 86.182 28.001 86.437 28.001H89.081C89.336 28.001 89.509 27.841 89.509 27.591V22.201L92.919 27.841C93.005 28.001 93.174 28.091 93.261 28.091H96.161C96.416 28.091 96.589 27.921 96.589 27.671C96.673 27.511 96.673 27.421 96.589 27.341H96.593ZM100.604 20.301V19.8911C100.604 18.6511 101.2 18.151 102.48 18.151C103.931 18.151 104.187 18.821 104.187 19.901V20.311H100.604V20.301ZM8.707 17.571C9.459 17.571 10.073 18.171 10.073 18.901C10.073 19.631 9.459 20.221 8.707 20.221C7.955 20.221 7.341 19.631 7.341 18.901C7.341 18.171 7.953 17.571 8.707 17.571ZM57.428 15.252C56.148 15.252 54.783 15.587 53.93 15.916V11.1931C53.93 10.9461 53.759 10.778 53.502 10.778H50.857C50.602 10.778 50.429 10.9461 50.429 11.1931V27.601C50.429 27.841 50.602 28.011 50.771 28.011C52.392 28.261 54.355 28.431 55.464 28.431C60.413 28.431 61.437 26.361 61.437 23.291V19.731C61.437 16.747 60.072 15.252 57.428 15.252ZM36.267 13.7581C36.012 13.7581 35.839 13.592 35.839 13.342V11.105C35.839 10.855 36.012 10.689 36.267 10.689H38.913C39.169 10.689 39.341 10.939 39.341 11.105V13.34C39.341 13.588 39.169 13.756 38.913 13.756H36.267V13.7581ZM8.70499 13.174C5.63199 13.174 3.159 12.6791 3.159 12.0161C3.159 11.3521 5.63199 10.855 8.70499 10.855C11.776 10.855 14.252 11.352 14.252 12.014C14.252 12.677 11.776 13.174 8.70499 13.174ZM42.92 6.63C42.494 6.63 41.811 6.46405 41.469 6.21405C41.387 6.21405 41.387 6.13305 41.387 6.05005L41.557 5.38605L41.639 5.30402H41.81C42.238 5.39302 42.662 5.47205 43.088 5.47205C43.608 5.47205 43.608 5.31301 43.608 5.05701C43.608 4.89701 43.608 4.72904 42.838 4.56104C41.645 4.31404 41.472 3.98705 41.472 3.07605C41.472 2.24805 41.729 1.67004 43.266 1.67004C43.691 1.67004 44.289 1.74905 44.632 1.83405C44.632 1.83405 44.714 1.91702 44.714 1.99902L44.63 2.742L44.545 2.82501H44.374C44.222 2.82501 44.04 2.81003 43.854 2.79303L43.693 2.77704C43.507 2.75904 43.325 2.74103 43.176 2.74103C42.664 2.74103 42.664 2.82402 42.664 3.07202C42.664 3.40802 42.664 3.40806 43.262 3.57306C44.54 3.90506 44.71 4.15403 44.71 5.14703C44.71 6.05203 44.373 6.63101 42.952 6.64001H42.919L42.92 6.63ZM39.163 6.63C38.653 6.63 38.055 6.46405 37.457 6.21405C37.372 6.21405 37.372 6.13305 37.372 6.05005L37.543 5.38605L37.634 5.30402H37.807C38.232 5.39302 38.659 5.47205 39.086 5.47205C39.596 5.47205 39.596 5.31301 39.596 5.05701C39.596 4.89701 39.596 4.72904 38.829 4.56104C37.636 4.31404 37.463 3.98705 37.463 3.07605C37.463 2.24805 37.72 1.67004 39.257 1.67004C39.683 1.67004 40.281 1.74905 40.623 1.83405C40.707 1.83405 40.792 1.91702 40.792 1.99902L40.709 2.74603L40.625 2.828H40.534C40.385 2.828 40.203 2.81003 40.017 2.79303L39.857 2.77802C39.671 2.76002 39.489 2.74603 39.338 2.74603C38.819 2.74603 38.819 2.82506 38.819 3.07306C38.819 3.40606 38.819 3.40602 39.418 3.57202C40.698 3.90502 40.869 4.15406 40.954 5.14606C40.954 6.05206 40.617 6.63205 39.196 6.64105H39.163V6.63ZM54.61 1.74103C54.097 1.74103 53.414 1.90704 52.732 2.15704L52.646 1.90704C52.646 1.82404 52.561 1.82404 52.476 1.82404H51.708C51.622 1.82404 51.537 1.90705 51.537 1.99005V6.38202C51.537 6.46402 51.622 6.54706 51.708 6.54706H52.732C52.817 6.54706 52.902 6.46404 52.902 6.38104V3.31403C53.244 3.14803 53.755 2.98303 54.097 2.98303C54.352 2.98303 54.438 3.06503 54.438 3.31403V6.38202C54.438 6.46402 54.523 6.54706 54.609 6.54706H55.629C55.711 6.54706 55.802 6.46404 55.802 6.38104V3.14606C55.711 2.15206 55.374 1.73706 54.609 1.73706L54.61 1.74103ZM46.417 1.82404H45.393C45.308 1.82404 45.223 1.90705 45.223 1.99005V6.38202C45.223 6.46402 45.308 6.54706 45.394 6.54706H46.423C46.512 6.54706 46.596 6.46404 46.596 6.38104V1.98706C46.596 1.90506 46.512 1.82202 46.423 1.82202L46.417 1.82404ZM32.423 0.00305176H31.4C31.315 0.00305176 31.229 0.0850532 31.229 0.167053V6.38202C31.229 6.46402 31.311 6.54706 31.393 6.54706H32.422C32.504 6.54706 32.59 6.46404 32.59 6.38104V0.165039C32.59 0.0830391 32.504 0 32.42 0L32.423 0.00305176ZM25.939 0.25C25.939 0.167 25.854 0.167053 25.768 0.167053H24.233C24.147 0.167053 24.062 0.25 24.062 0.25L22.094 6.29901V6.46405C22.094 6.54705 22.176 6.54706 22.261 6.54706H23.372C23.456 6.54706 23.541 6.46405 23.541 6.46405L24.907 1.98901C24.907 1.98901 24.907 1.90704 25.077 1.90704C25.161 1.90704 25.247 1.99005 25.247 1.99005L25.845 4.06201H24.991C24.903 4.06201 24.818 4.14404 24.818 4.14404L24.563 4.966V5.12903C24.563 5.12903 24.647 5.21204 24.733 5.21204H26.181L26.523 6.37305C26.523 6.45405 26.609 6.45404 26.695 6.45404H27.806C27.891 6.45404 27.891 6.45406 27.979 6.37006V6.20203L25.939 0.25ZM34.728 5.55304C35.156 5.55304 35.411 5.47002 35.581 5.38702V4.72406H34.728C34.386 4.72406 34.301 4.889 34.301 5.138C34.301 5.467 34.385 5.55102 34.72 5.55402L34.728 5.55304ZM30.632 5.55304C30.632 5.47004 30.632 5.47003 30.547 5.47003H30.376C30.206 5.55303 30.034 5.55304 29.864 5.55304C29.609 5.55304 29.523 5.47001 29.523 5.22101V2.81805H30.461C30.547 2.81805 30.632 2.73602 30.632 2.65302V1.99005C30.632 1.90705 30.547 1.82404 30.462 1.82404H29.523V0.664001C29.523 0.582001 29.523 0.582031 29.438 0.582031C29.438 0.582031 29.352 0.502031 29.267 0.582031L28.243 0.75C28.157 0.75 28.073 0.83803 28.073 0.91803V1.90802H27.561C27.479 1.90802 27.397 1.99505 27.397 2.07605V2.82404C27.397 2.90804 27.484 2.992 27.57 2.992H28.083V5.47705C28.083 6.30405 28.509 6.71906 29.449 6.71906C29.704 6.71906 30.13 6.63503 30.387 6.55103C30.728 6.38603 30.728 6.38602 30.728 6.30402L30.642 5.55701L30.632 5.55304ZM48.806 5.55304C49.234 5.55304 49.489 5.47002 49.66 5.38702V4.72406H48.806C48.466 4.72406 48.38 4.889 48.38 5.138C48.38 5.467 48.464 5.55102 48.799 5.55402L48.806 5.55304ZM34.983 1.74103C34.473 1.74103 33.874 1.82404 33.448 1.90704C33.362 1.90704 33.278 1.99006 33.362 2.07306L33.453 2.73602C33.453 2.81802 33.453 2.81805 33.543 2.81805H33.627C34.055 2.73605 34.481 2.73602 34.821 2.73602C35.504 2.73602 35.675 2.901 35.675 3.315V3.73102H34.646C33.621 3.73102 33.195 4.14403 33.195 5.05603C33.195 5.96703 33.707 6.46405 34.474 6.46405C34.984 6.46405 35.413 6.29806 35.839 6.13306V6.29803C35.839 6.38103 35.924 6.38104 36.009 6.38104H36.778C36.86 6.38104 36.951 6.29301 36.951 6.21301V3.39301C36.951 2.15101 36.441 1.73602 34.991 1.73602L34.983 1.74103ZM48.978 1.74103C48.466 1.74103 47.868 1.82404 47.441 1.90704C47.35 1.90704 47.268 1.99006 47.35 2.07306L47.432 2.73602C47.432 2.81802 47.432 2.81805 47.517 2.81805H47.602C48.03 2.73605 48.456 2.73602 48.795 2.73602C49.478 2.73602 49.651 2.901 49.651 3.315V3.73102H48.635C47.612 3.73102 47.185 4.14403 47.185 5.05603C47.185 5.96703 47.697 6.46405 48.466 6.46405C48.978 6.46405 49.404 6.29806 49.832 6.13306L49.916 6.29803C49.916 6.38103 50.001 6.38104 50.087 6.38104H50.855C50.94 6.38104 51.025 6.29301 51.025 6.21301V3.39301C50.94 2.15101 50.427 1.73602 48.978 1.73602V1.74103ZM46.418 0.00201416H45.393C45.308 0.00201416 45.223 0.0850532 45.223 0.167053V0.996033C45.223 1.07503 45.308 1.15503 45.394 1.15503H46.423C46.512 1.15503 46.596 1.07006 46.596 0.987061V0.165039C46.596 0.0830391 46.512 0 46.423 0L46.418 0.00201416Z" fill="#D2D6DC"/>
</svg>
