<svg width="225" height="178" viewBox="0 0 225 178" fill="none" xmlns="http://www.w3.org/2000/svg">
<path d="M219.776 0H5.00903C2.24257 0 0 2.24269 0 5.00916V172.189C0 174.955 2.24257 177.198 5.00903 177.198H219.776C222.542 177.198 224.785 174.955 224.785 172.189V5.00916C224.785 2.24269 222.542 0 219.776 0Z" fill="#F7F7F8"/>
<path d="M224.785 0H0V15.6535H224.785V0Z" fill="white"/>
<path d="M10.64 10.6446C12.0233 10.6446 13.1445 9.52325 13.1445 8.14001C13.1445 6.75678 12.0233 5.63544 10.64 5.63544C9.25678 5.63544 8.13538 6.75678 8.13538 8.14001C8.13538 9.52325 9.25678 10.6446 10.64 10.6446Z" fill="#2FDF84"/>
<path d="M19.4099 10.6446C20.7931 10.6446 21.9146 9.52325 21.9146 8.14001C21.9146 6.75678 20.7931 5.63544 19.4099 5.63544C18.0267 5.63544 16.9054 6.75678 16.9054 8.14001C16.9054 9.52325 18.0267 10.6446 19.4099 10.6446Z" fill="#D2D6DC"/>
<path d="M28.1699 10.6446C29.5532 10.6446 30.6746 9.52325 30.6746 8.14001C30.6746 6.75678 29.5532 5.63544 28.1699 5.63544C26.7867 5.63544 25.6654 6.75678 25.6654 8.14001C25.6654 9.52325 26.7867 10.6446 28.1699 10.6446Z" fill="#D2D6DC"/>
<path d="M90.6599 34.303C90.4399 33.652 90.0199 33.111 89.3999 32.66C88.7799 32.21 88.02 31.979 87.12 31.979C86.03 31.979 85.0999 32.37 84.3099 33.141C83.5199 33.913 83.13 34.874 83.13 36.027C83.13 37.179 83.5 38.14 84.24 38.892C84.98 39.643 85.94 40.024 87.11 40.024C88.23 40.024 89.1099 39.683 89.7699 39.002C90.4399 38.311 90.7699 37.459 90.7699 36.437V36.006H86.62V37.129H89.4399C89.2499 38.16 88.43 38.892 87.1 38.892C86.32 38.892 85.6799 38.611 85.1699 38.06C84.6599 37.509 84.4099 36.818 84.4099 35.996C84.4099 35.175 84.6699 34.494 85.1799 33.943C85.6999 33.392 86.34 33.121 87.11 33.121C88.36 33.121 89.1599 33.802 89.5699 34.804L90.6599 34.303ZM94.45 34.474C93.67 34.474 93 34.744 92.45 35.275C91.9 35.806 91.62 36.467 91.62 37.249C91.62 38.03 91.8899 38.691 92.4399 39.222C92.9899 39.753 93.6599 40.024 94.4399 40.024C95.2299 40.024 95.8999 39.753 96.4399 39.222C96.9899 38.681 97.26 38.02 97.26 37.229C97.26 36.447 96.9899 35.796 96.4399 35.265C95.8899 34.734 95.22 34.474 94.45 34.474ZM93.2799 36.047C93.5799 35.716 93.9699 35.556 94.4399 35.556C94.9099 35.556 95.3 35.716 95.59 36.047C95.9 36.377 96.0499 36.778 96.0499 37.249C96.0499 37.72 95.9 38.12 95.6 38.451C95.31 38.782 94.92 38.942 94.45 38.942C93.98 38.942 93.5899 38.772 93.2899 38.441C92.9899 38.1 92.84 37.7 92.84 37.229C92.84 36.758 92.9899 36.367 93.2799 36.047ZM100.97 34.474C100.19 34.474 99.52 34.744 98.96 35.275C98.41 35.806 98.13 36.467 98.13 37.249C98.13 38.03 98.4 38.691 98.95 39.222C99.51 39.753 100.18 40.024 100.96 40.024C101.75 40.024 102.41 39.753 102.95 39.222C103.5 38.681 103.77 38.02 103.77 37.229C103.77 36.447 103.5 35.796 102.95 35.265C102.4 34.734 101.74 34.474 100.97 34.474ZM99.7999 36.047C100.1 35.716 100.49 35.556 100.96 35.556C101.43 35.556 101.82 35.716 102.11 36.047C102.41 36.377 102.56 36.778 102.56 37.249C102.56 37.72 102.41 38.12 102.12 38.451C101.83 38.782 101.44 38.942 100.97 38.942C100.5 38.942 100.11 38.772 99.8099 38.441C99.5099 38.1 99.36 37.7 99.36 37.229C99.36 36.758 99.5099 36.367 99.7999 36.047ZM107.25 39.974C107.53 39.974 107.85 39.904 108.2 39.753C108.55 39.603 108.82 39.383 109.01 39.072V39.914C109.01 40.986 108.32 41.547 107.38 41.547C106.63 41.547 106.07 41.166 105.7 40.415L104.71 40.986C105.2 42.068 106.1 42.609 107.4 42.609C108.25 42.609 108.92 42.358 109.43 41.867C109.94 41.376 110.2 40.705 110.2 39.864V34.584H109.04V35.395C108.85 35.095 108.58 34.874 108.24 34.724C107.9 34.574 107.58 34.494 107.29 34.494C106.5 34.494 105.86 34.774 105.37 35.335C104.89 35.896 104.65 36.527 104.65 37.239C104.65 37.98 104.89 38.621 105.38 39.162C105.87 39.703 106.5 39.974 107.25 39.974ZM109.03 37.219C109.03 37.69 108.88 38.09 108.58 38.421C108.29 38.741 107.91 38.902 107.43 38.902C106.96 38.902 106.58 38.741 106.28 38.421C105.99 38.09 105.84 37.69 105.84 37.219C105.84 36.748 105.99 36.347 106.28 36.037C106.57 35.716 106.96 35.556 107.43 35.556C107.91 35.556 108.3 35.716 108.59 36.037C108.88 36.357 109.03 36.748 109.03 37.219ZM111.8 39.934H112.99V31.779H111.8V39.934ZM119.51 37.609C119.52 37.519 119.53 37.399 119.53 37.239C119.53 36.407 119.3 35.746 118.84 35.235C118.38 34.724 117.73 34.474 116.92 34.474C116.15 34.474 115.51 34.744 115 35.285C114.49 35.826 114.23 36.477 114.23 37.249C114.23 38.04 114.5 38.711 115.03 39.242C115.57 39.773 116.24 40.034 117.03 40.034C117.99 40.034 118.87 39.573 119.32 38.741L118.46 38.17C118.16 38.721 117.68 39.002 117.01 39.002C116.6 39.002 116.24 38.872 115.93 38.611C115.62 38.341 115.46 38.01 115.45 37.609H119.51ZM116.92 35.496C117.68 35.496 118.27 35.956 118.31 36.708H115.51C115.62 35.976 116.19 35.496 116.92 35.496ZM122.32 39.934H123.58L124.3 38.09H128.15L128.86 39.934H130.14L126.97 32.089H125.51L122.32 39.934ZM126.22 33.272L127.72 36.998H124.74L126.22 33.272ZM130.55 37.249C130.55 37.99 130.8 38.641 131.3 39.192C131.8 39.743 132.43 40.014 133.18 40.014C133.46 40.014 133.78 39.944 134.14 39.793C134.51 39.643 134.78 39.413 134.97 39.102V39.934H136.14V31.779H134.94V35.345C134.76 35.055 134.5 34.844 134.15 34.704C133.81 34.554 133.5 34.484 133.21 34.484C132.42 34.484 131.77 34.764 131.28 35.325C130.79 35.886 130.55 36.527 130.55 37.249ZM133.36 35.556C133.83 35.556 134.21 35.716 134.51 36.047C134.81 36.377 134.96 36.778 134.96 37.249C134.96 37.72 134.81 38.12 134.51 38.451C134.22 38.772 133.83 38.932 133.36 38.932C132.89 38.932 132.5 38.772 132.2 38.451C131.91 38.12 131.76 37.72 131.76 37.249C131.76 36.778 131.91 36.377 132.2 36.047C132.5 35.716 132.89 35.556 133.36 35.556ZM139.47 40.024C140.07 40.024 140.56 39.874 140.93 39.563C141.3 39.252 141.49 38.852 141.49 38.361C141.49 37.529 140.85 36.948 139.64 36.678C138.95 36.527 138.65 36.347 138.65 35.996C138.65 35.706 139.03 35.476 139.4 35.476C139.91 35.476 140.28 35.716 140.52 36.197L141.44 35.676C141.07 34.874 140.4 34.474 139.44 34.474C138.92 34.474 138.47 34.624 138.08 34.935C137.69 35.245 137.5 35.636 137.5 36.117C137.5 36.497 137.63 36.818 137.88 37.088C138.17 37.399 138.62 37.609 139.21 37.73C139.94 37.88 140.31 38.12 140.31 38.431C140.31 38.792 139.92 39.022 139.47 39.022C138.9 39.022 138.48 38.731 138.19 38.16L137.25 38.681C137.67 39.573 138.41 40.024 139.47 40.024Z" fill="#2FDF84"/>
<g filter="url(#filter0_d_1_1445)">
<path d="M139.621 57.605H85.1469C83.072 57.605 81.39 59.287 81.39 61.3619V121.471C81.39 123.546 83.072 125.228 85.1469 125.228H139.621C141.696 125.228 143.378 123.546 143.378 121.471V61.3619C143.378 59.287 141.696 57.605 139.621 57.605Z" fill="#F4FBF7"/>
<path d="M139.628 57.918H85.1537C83.2517 57.918 81.71 59.4598 81.71 61.3618V121.471C81.71 123.373 83.2517 124.915 85.1537 124.915H139.628C141.53 124.915 143.072 123.373 143.072 121.471V61.3618C143.072 59.4598 141.53 57.918 139.628 57.918Z" stroke="#D2D6DC" stroke-width="0.626141"/>
</g>
<path d="M127.098 132.742H82.6422C81.9506 132.742 81.39 133.303 81.39 133.994C81.39 134.686 81.9506 135.247 82.6422 135.247H127.098C127.79 135.247 128.351 134.686 128.351 133.994C128.351 133.303 127.79 132.742 127.098 132.742Z" fill="#D2D6DC"/>
<path d="M142.126 138.378H82.6422C81.9506 138.378 81.39 138.939 81.39 139.63V139.63C81.39 140.322 81.9506 140.883 82.6422 140.883H142.126C142.817 140.883 143.378 140.322 143.378 139.63V139.63C143.378 138.939 142.817 138.378 142.126 138.378Z" fill="#D2D6DC"/>
<path d="M142.126 144.013H82.6422C81.9506 144.013 81.39 144.574 81.39 145.265C81.39 145.957 81.9506 146.518 82.6422 146.518H142.126C142.817 146.518 143.378 145.957 143.378 145.265C143.378 144.574 142.817 144.013 142.126 144.013Z" fill="#D2D6DC"/>
<g filter="url(#filter1_d_1_1445)">
<path d="M210.381 57.605H155.907C153.832 57.605 152.15 59.287 152.15 61.3619V121.471C152.15 123.546 153.832 125.228 155.907 125.228H210.381C212.456 125.228 214.138 123.546 214.138 121.471V61.3619C214.138 59.287 212.456 57.605 210.381 57.605Z" fill="#F4FBF7"/>
<path d="M210.378 57.918H155.904C154.002 57.918 152.46 59.4598 152.46 61.3618V121.471C152.46 123.373 154.002 124.915 155.904 124.915H210.378C212.28 124.915 213.822 123.373 213.822 121.471V61.3618C213.822 59.4598 212.28 57.918 210.378 57.918Z" stroke="#D2D6DC" stroke-width="0.626141"/>
</g>
<path d="M197.858 132.742H153.402C152.711 132.742 152.15 133.303 152.15 133.994C152.15 134.686 152.711 135.247 153.402 135.247H197.858C198.55 135.247 199.111 134.686 199.111 133.994C199.111 133.303 198.55 132.742 197.858 132.742Z" fill="#D2D6DC"/>
<path d="M212.886 138.378H153.402C152.711 138.378 152.15 138.939 152.15 139.63V139.63C152.15 140.322 152.711 140.883 153.402 140.883H212.886C213.577 140.883 214.138 140.322 214.138 139.63V139.63C214.138 138.939 213.577 138.378 212.886 138.378Z" fill="#D2D6DC"/>
<path d="M212.886 144.013H153.402C152.711 144.013 152.15 144.574 152.15 145.265C152.15 145.957 152.711 146.518 153.402 146.518H212.886C213.577 146.518 214.138 145.957 214.138 145.265C214.138 144.574 213.577 144.013 212.886 144.013Z" fill="#D2D6DC"/>
<path d="M56.3483 132.742H11.8922C11.2006 132.742 10.64 133.303 10.64 133.994C10.64 134.686 11.2006 135.247 11.8922 135.247H56.3483C57.0399 135.247 57.6006 134.686 57.6006 133.994C57.6006 133.303 57.0399 132.742 56.3483 132.742Z" fill="#2FDF84"/>
<path d="M71.3757 138.378H11.8922C11.2006 138.378 10.64 138.939 10.64 139.63V139.63C10.64 140.322 11.2006 140.883 11.8922 140.883H71.3757C72.0673 140.883 72.6279 140.322 72.6279 139.63V139.63C72.6279 138.939 72.0673 138.378 71.3757 138.378Z" fill="#D2D6DC"/>
<path d="M71.3757 144.013H11.8922C11.2006 144.013 10.64 144.574 10.64 145.265C10.64 145.957 11.2006 146.518 11.8922 146.518H71.3757C72.0673 146.518 72.6279 145.957 72.6279 145.265C72.6279 144.574 72.0673 144.013 71.3757 144.013Z" fill="#D2D6DC"/>
<g filter="url(#filter2_d_1_1445)">
<path d="M68.8711 57.605H14.3969C12.322 57.605 10.64 59.287 10.64 61.3619V121.471C10.64 123.546 12.322 125.228 14.3969 125.228H68.8711C70.9459 125.228 72.6279 123.546 72.6279 121.471V61.3619C72.6279 59.287 70.9459 57.605 68.8711 57.605Z" fill="white"/>
<path d="M68.8679 57.918H14.3937C12.4917 57.918 10.95 59.4598 10.95 61.3618V121.471C10.95 123.373 12.4917 124.915 14.3937 124.915H68.8679C70.7699 124.915 72.3118 123.373 72.3118 121.471V61.3618C72.3118 59.4598 70.7699 57.918 68.8679 57.918Z" stroke="#D2D6DC" stroke-width="0.626141"/>
</g>
<g filter="url(#filter3_d_1_1445)">
<mask id="mask0_1_1445" style="mask-type:luminance" maskUnits="userSpaceOnUse" x="33" y="77" width="17" height="30">
<path d="M46.2678 77.016H36.5784C35.0494 77.016 33.8099 78.2555 33.8099 79.7844V103.662C33.8099 105.191 35.0494 106.43 36.5784 106.43H46.2678C47.7968 106.43 49.0363 105.191 49.0363 103.662V79.7844C49.0363 78.2555 47.7968 77.016 46.2678 77.016Z" fill="white"/>
</mask>
<g mask="url(#mask0_1_1445)">
<path d="M46.2678 77.016H36.5784C35.0494 77.016 33.8099 78.2555 33.8099 79.7844V103.662C33.8099 105.191 35.0494 106.43 36.5784 106.43H46.2678C47.7968 106.43 49.0363 105.191 49.0363 103.662V79.7844C49.0363 78.2555 47.7968 77.016 46.2678 77.016Z" fill="#F7F7F8"/>
<mask id="mask1_1_1445" style="mask-type:luminance" maskUnits="userSpaceOnUse" x="34" y="77" width="15" height="4">
<path d="M48.6841 77.016H34.1499V80.1305H48.6841V77.016Z" fill="white"/>
</mask>
<g mask="url(#mask1_1_1445)">
<path d="M48.6841 77.016H34.1499V80.1305H48.6841V77.016Z" fill="white"/>
<path d="M39.1699 79.438C39.4566 79.438 39.6891 79.2057 39.6891 78.919C39.6891 78.6323 39.4566 78.3999 39.1699 78.3999C38.8832 78.3999 38.6509 78.6323 38.6509 78.919C38.6509 79.2057 38.8832 79.438 39.1699 79.438Z" fill="#2FDF84"/>
<path d="M44.0175 78.746H40.903C40.8074 78.746 40.73 78.8234 40.73 78.919C40.73 79.0146 40.8074 79.092 40.903 79.092H44.0175C44.113 79.092 44.1904 79.0146 44.1904 78.919C44.1904 78.8234 44.113 78.746 44.0175 78.746Z" fill="#2FDF84"/>
</g>
<path d="M48.8601 80.303H33.98V103.489H48.8601V80.303Z" fill="#F4FBF7"/>
<path d="M48.8601 80.303H33.98V103.489H48.8601V80.303Z" stroke="#2FDF84" stroke-width="0.346052"/>
<mask id="mask2_1_1445" style="mask-type:luminance" maskUnits="userSpaceOnUse" x="33" y="103" width="16" height="4">
<path d="M48.6901 103.662H33.8099V106.084H48.6901V103.662Z" fill="white"/>
</mask>
<g mask="url(#mask2_1_1445)">
<path d="M41.59 105.565C41.9722 105.565 42.2821 105.255 42.2821 104.873C42.2821 104.491 41.9722 104.181 41.59 104.181C41.2077 104.181 40.8978 104.491 40.8978 104.873C40.8978 105.255 41.2077 105.565 41.59 105.565Z" fill="#2FDF84"/>
</g>
</g>
<path d="M46.2648 77.189H36.5753C35.1419 77.189 33.98 78.351 33.98 79.7844V103.662C33.98 105.095 35.1419 106.257 36.5753 106.257H46.2648C47.6982 106.257 48.8601 105.095 48.8601 103.662V79.7844C48.8601 78.351 47.6982 77.189 46.2648 77.189Z" stroke="#00B871" stroke-width="0.346052"/>
</g>
<defs>
<filter id="filter0_d_1_1445" x="78.2593" y="54.4742" width="69.5086" height="75.137" filterUnits="userSpaceOnUse" color-interpolation-filters="sRGB">
<feFlood flood-opacity="0" result="BackgroundImageFix"/>
<feColorMatrix in="SourceAlpha" type="matrix" values="0 0 0 0 0 0 0 0 0 0 0 0 0 0 0 0 0 0 127 0" result="hardAlpha"/>
<feOffset dx="0.626141" dy="0.626141"/>
<feGaussianBlur stdDeviation="1.87842"/>
<feComposite in2="hardAlpha" operator="out"/>
<feColorMatrix type="matrix" values="0 0 0 0 0 0 0 0 0 0.721569 0 0 0 0 0.443137 0 0 0 0.15 0"/>
<feBlend mode="normal" in2="BackgroundImageFix" result="effect1_dropShadow_1_1445"/>
<feBlend mode="normal" in="SourceGraphic" in2="effect1_dropShadow_1_1445" result="shape"/>
</filter>
<filter id="filter1_d_1_1445" x="149.016" y="54.4742" width="69.5048" height="75.137" filterUnits="userSpaceOnUse" color-interpolation-filters="sRGB">
<feFlood flood-opacity="0" result="BackgroundImageFix"/>
<feColorMatrix in="SourceAlpha" type="matrix" values="0 0 0 0 0 0 0 0 0 0 0 0 0 0 0 0 0 0 127 0" result="hardAlpha"/>
<feOffset dx="0.626141" dy="0.626141"/>
<feGaussianBlur stdDeviation="1.87842"/>
<feComposite in2="hardAlpha" operator="out"/>
<feColorMatrix type="matrix" values="0 0 0 0 0 0 0 0 0 0.721569 0 0 0 0 0.443137 0 0 0 0.15 0"/>
<feBlend mode="normal" in2="BackgroundImageFix" result="effect1_dropShadow_1_1445"/>
<feBlend mode="normal" in="SourceGraphic" in2="effect1_dropShadow_1_1445" result="shape"/>
</filter>
<filter id="filter2_d_1_1445" x="0.618581" y="51.3435" width="82.0276" height="87.6599" filterUnits="userSpaceOnUse" color-interpolation-filters="sRGB">
<feFlood flood-opacity="0" result="BackgroundImageFix"/>
<feColorMatrix in="SourceAlpha" type="matrix" values="0 0 0 0 0 0 0 0 0 0 0 0 0 0 0 0 0 0 127 0" result="hardAlpha"/>
<feOffset dy="3.75685"/>
<feGaussianBlur stdDeviation="5.00913"/>
<feComposite in2="hardAlpha" operator="out"/>
<feColorMatrix type="matrix" values="0 0 0 0 0.184314 0 0 0 0 0.87451 0 0 0 0 0.517647 0 0 0 0.15 0"/>
<feBlend mode="normal" in2="BackgroundImageFix" result="effect1_dropShadow_1_1445"/>
<feBlend mode="normal" in="SourceGraphic" in2="effect1_dropShadow_1_1445" result="shape"/>
</filter>
<filter id="filter3_d_1_1445" x="32.0767" y="75.2857" width="19.3819" height="33.5671" filterUnits="userSpaceOnUse" color-interpolation-filters="sRGB">
<feFlood flood-opacity="0" result="BackgroundImageFix"/>
<feColorMatrix in="SourceAlpha" type="matrix" values="0 0 0 0 0 0 0 0 0 0 0 0 0 0 0 0 0 0 127 0" result="hardAlpha"/>
<feOffset dx="0.346052" dy="0.346052"/>
<feGaussianBlur stdDeviation="1.03816"/>
<feComposite in2="hardAlpha" operator="out"/>
<feColorMatrix type="matrix" values="0 0 0 0 0 0 0 0 0 0.721569 0 0 0 0 0.443137 0 0 0 0.15 0"/>
<feBlend mode="normal" in2="BackgroundImageFix" result="effect1_dropShadow_1_1445"/>
<feBlend mode="normal" in="SourceGraphic" in2="effect1_dropShadow_1_1445" result="shape"/>
</filter>
</defs>
</svg>
