<svg width="45" height="45" viewBox="0 0 45 45" fill="none" xmlns="http://www.w3.org/2000/svg">
<mask id="mask0_1_1614" style="mask-type:luminance" maskUnits="userSpaceOnUse" x="0" y="0" width="45" height="45">
<path d="M45 0H0V45H45V0Z" fill="white"/>
</mask>
<g mask="url(#mask0_1_1614)">
<path d="M23.0309 7.63989H21.9869C21.5019 7.63989 21.1079 8.04002 21.1079 8.52002C21.1079 9.01002 21.5019 9.3999 21.9869 9.3999H23.0309C23.5169 9.3999 23.9099 9.01002 23.9099 8.52002C23.9099 8.04002 23.5169 7.63989 23.0309 7.63989Z" fill="#00B871"/>
<path d="M27.86 7.63989H26.816C26.331 7.63989 25.938 8.04002 25.938 8.52002C25.938 9.01002 26.331 9.3999 26.816 9.3999H27.86C28.346 9.3999 28.739 9.01002 28.739 8.52002C28.739 8.04002 28.346 7.63989 27.86 7.63989Z" fill="#00B871"/>
<path d="M32.6891 7.63989H31.6451C31.1601 7.63989 30.7661 8.04002 30.7661 8.52002C30.7661 9.01002 31.1601 9.3999 31.6451 9.3999H32.6891C33.1741 9.3999 33.5681 9.01002 33.5681 8.52002C33.5681 8.04002 33.1741 7.63989 32.6891 7.63989Z" fill="#00B871"/>
<path d="M13.175 7.63989H5.63998C5.15498 7.63989 4.76099 8.04002 4.76099 8.52002C4.76099 9.01002 5.15498 9.3999 5.63998 9.3999H13.175C13.66 9.3999 14.054 9.01002 14.054 8.52002C14.054 8.04002 13.66 7.63989 13.175 7.63989Z" fill="#00B871"/>
<path d="M12.6421 17.0601C10.6161 17.0601 8.96809 18.71 8.96809 20.74V21.02H6.62509C6.13909 21.02 5.74609 21.4199 5.74609 21.8999V31.8799C5.74609 33.5299 7.0891 34.8799 8.7401 34.8799H16.5631C18.2141 34.8799 19.5581 33.5299 19.5581 31.8799V21.8999C19.5581 21.4199 19.1641 21.02 18.6791 21.02H16.3151V20.74C16.3151 18.71 14.6671 17.0601 12.6421 17.0601ZM10.7261 20.74C10.7261 19.68 11.5851 18.8201 12.6421 18.8201C13.6981 18.8201 14.5571 19.68 14.5571 20.74V21.02H10.7261V20.74ZM17.8001 22.78V31.8799C17.8001 32.5599 17.2451 33.1201 16.5631 33.1201H8.7401C8.0581 33.1201 7.5031 32.5599 7.5031 31.8799V22.78H8.96809V24.6299C8.96809 25.1199 9.36209 25.51 9.84709 25.51C10.3321 25.51 10.7261 25.1199 10.7261 24.6299V22.78H14.5571V24.6299C14.5571 25.1199 14.9511 25.51 15.4361 25.51C15.9221 25.51 16.3151 25.1199 16.3151 24.6299V22.78H17.8001Z" fill="#00B871"/>
<path d="M32.862 38.7H2.95399C2.29499 38.7 1.758 38.17 1.758 37.51V13.51H35.6V21.8799H37.358V6.48999C37.358 4.85999 36.032 3.54004 34.403 3.54004H2.95399C1.32499 3.54004 0 4.85999 0 6.48999V37.51C0 39.14 1.32499 40.46 2.95399 40.46H35.662C34.78 40.03 33.784 39.45 32.862 38.7ZM1.758 6.48999C1.758 5.82999 2.29499 5.30005 2.95399 5.30005H34.403C35.063 5.30005 35.6 5.82999 35.6 6.48999V11.75H1.758V6.48999Z" fill="#00B871"/>
<path d="M42.718 24.1101C40.53 24.1101 38.643 22.84 37.765 21H35.192C34.314 22.84 32.428 24.1101 30.24 24.1101C29.425 24.1101 28.652 23.9401 27.958 23.6201V32.6201C27.958 39.2101 36.479 41.46 36.479 41.46C36.479 41.46 45 39.2101 45 32.6201V23.6201C44.305 23.9401 43.532 24.1101 42.718 24.1101Z" fill="#2FDF84"/>
<path d="M36.217 33.8101C35.985 33.8101 35.762 33.7201 35.597 33.5501L34.124 32.0902C33.78 31.7502 33.778 31.1902 34.12 30.8502C34.462 30.5002 35.019 30.5002 35.363 30.8402L36.16 31.64L38.491 28.88C38.804 28.5 39.359 28.4601 39.729 28.7701C40.1 29.0801 40.147 29.6401 39.834 30.0101L36.888 33.5001C36.73 33.6901 36.5 33.8001 36.255 33.8101C36.242 33.8101 36.229 33.8101 36.217 33.8101Z" fill="#00B871"/>
</g>
</svg>
