<svg width="45" height="38" viewBox="0 0 45 38" fill="none" xmlns="http://www.w3.org/2000/svg">
<path d="M16.138 29.8101C16.138 30.8501 16.987 31.7 18.035 31.7H26.965C28.012 31.7 28.862 30.8501 28.862 29.8101H35.798V12.8801H9.20203V29.8101H16.138Z" fill="#2FDF84"/>
<path d="M20.484 27.83C20.37 27.83 20.255 27.8099 20.144 27.7599C19.696 27.5799 19.486 27.06 19.674 26.61L23.84 16.6899C24.028 16.2399 24.543 16.0299 24.99 16.2199C25.438 16.3999 25.648 16.9201 25.461 17.3701L21.295 27.29C21.153 27.63 20.827 27.83 20.484 27.83Z" fill="#00B871"/>
<path d="M19.2949 21.72C17.7949 21.72 16.575 20.37 16.575 18.7C16.575 17.04 17.7949 15.6899 19.2949 15.6899C20.7949 15.6899 22.015 17.04 22.015 18.7C22.015 20.37 20.7949 21.72 19.2949 21.72ZM19.2949 17.4399C18.7739 17.4399 18.3329 18.02 18.3329 18.7C18.3329 19.39 18.7739 19.96 19.2949 19.96C19.8159 19.96 20.257 19.39 20.257 18.7C20.257 18.02 19.8159 17.4399 19.2949 17.4399Z" fill="#00B871"/>
<path d="M25.705 28.51C24.205 28.51 22.985 27.16 22.985 25.49C22.985 23.83 24.205 22.47 25.705 22.47C27.205 22.47 28.425 23.83 28.425 25.49C28.425 27.16 27.205 28.51 25.705 28.51ZM25.705 24.23C25.184 24.23 24.743 24.81 24.743 25.49C24.743 26.17 25.184 26.75 25.705 26.75C26.226 26.75 26.667 26.17 26.667 25.49C26.667 24.81 26.226 24.23 25.705 24.23Z" fill="#00B871"/>
<path d="M44.121 28.9302H43.296V3.58008C43.296 1.61008 41.69 0 39.715 0H5.28497C3.30997 0 1.70398 1.61008 1.70398 3.58008V28.9302H0.879028C0.393028 28.9302 0 29.3201 0 29.8101V33.0901C0 35.3101 1.80397 37.1201 4.02197 37.1201H40.978C43.196 37.1201 45 35.3101 45 33.0901V29.8101C45 29.3201 44.606 28.9302 44.121 28.9302ZM5.28497 1.76001H39.715C40.721 1.76001 41.539 2.58008 41.539 3.58008V6.03003H3.461V3.58008C3.461 2.58008 4.27897 1.76001 5.28497 1.76001ZM3.461 7.79004H41.539V28.9302H28.862C28.376 28.9302 27.983 29.3201 27.983 29.8101C27.983 30.3701 27.526 30.8201 26.965 30.8201H18.035C17.474 30.8201 17.017 30.3701 17.017 29.8101C17.017 29.3201 16.624 28.9302 16.138 28.9302H3.461V7.79004ZM43.242 33.0901C43.242 34.3401 42.227 35.3601 40.978 35.3601H4.02197C2.77297 35.3601 1.758 34.3401 1.758 33.0901V30.6899H15.402C15.77 31.7899 16.812 32.5801 18.035 32.5801H26.965C28.188 32.5801 29.23 31.7899 29.598 30.6899H43.242V33.0901Z" fill="#00B871"/>
</svg>
