<svg width="45" height="38" viewBox="0 0 45 38" fill="none" xmlns="http://www.w3.org/2000/svg">
<path d="M44.121 28.9302H43.296V3.58008C43.296 1.61008 41.69 0 39.715 0H5.28497C3.30997 0 1.70398 1.61008 1.70398 3.58008V28.9302H0.879028C0.393028 28.9302 0 29.3201 0 29.8101V33.0901C0 35.3101 1.80397 37.1201 4.02197 37.1201H40.978C43.196 37.1201 45 35.3101 45 33.0901V29.8101C45 29.3201 44.606 28.9302 44.121 28.9302ZM5.28497 1.76001H39.715C40.721 1.76001 41.539 2.58008 41.539 3.58008V6.03003H3.461V3.58008C3.461 2.58008 4.27897 1.76001 5.28497 1.76001ZM3.461 7.79004H41.539V28.9302H28.862C28.376 28.9302 27.983 29.3201 27.983 29.8101C27.983 30.3701 27.526 30.8201 26.965 30.8201H18.035C17.474 30.8201 17.017 30.3701 17.017 29.8101C17.017 29.3201 16.624 28.9302 16.138 28.9302H3.461V7.79004ZM43.242 33.0901C43.242 34.3401 42.227 35.3601 40.978 35.3601H4.02197C2.77297 35.3601 1.758 34.3401 1.758 33.0901V30.6899H15.402C15.77 31.7899 16.812 32.5801 18.035 32.5801H26.965C28.188 32.5801 29.23 31.7899 29.598 30.6899H43.242V33.0901Z" fill="#00B871"/>
</svg>
