<svg width="305" height="214" viewBox="0 0 305 214" fill="none" xmlns="http://www.w3.org/2000/svg">
<g filter="url(#filter0_d_1_1432)">
<path d="M269.037 10H34C24.0589 10 16 18.0589 16 28V173.308C16 183.249 24.0589 191.308 34 191.308H269.037C278.978 191.308 287.037 183.249 287.037 173.308V28C287.037 18.0589 278.978 10 269.037 10Z" fill="white"/>
<path d="M38.54 41.687H42.67V52.826H44.7101V41.687H48.86V39.789H38.54V41.687ZM52.92 43.751C51.62 43.751 50.5001 44.201 49.5901 45.084C48.6701 45.966 48.2001 47.065 48.2001 48.364C48.2001 49.662 48.6501 50.761 49.5701 51.644C50.4901 52.526 51.6 52.976 52.9 52.976C54.22 52.976 55.3101 52.526 56.2101 51.644C57.1301 50.745 57.5801 49.646 57.5801 48.33C57.5801 47.032 57.1301 45.949 56.2101 45.067C55.3001 44.184 54.2 43.751 52.92 43.751ZM50.9701 46.366C51.4701 45.816 52.12 45.55 52.9 45.55C53.68 45.55 54.3301 45.816 54.8201 46.366C55.3101 46.915 55.5601 47.581 55.5601 48.364C55.5601 49.146 55.3101 49.812 54.8301 50.362C54.3501 50.911 53.7 51.178 52.92 51.178C52.13 51.178 51.48 50.895 50.99 50.345C50.49 49.779 50.24 49.113 50.24 48.33C50.24 47.548 50.4901 46.898 50.9701 46.366ZM64.3501 45.716V43.935H62.17V41.187H60.1901V43.935H58.55V45.716H60.1901V49.962C60.1901 51.894 61.32 52.926 63.27 52.926C63.65 52.926 64.0201 52.859 64.3301 52.743V51.061C64.1201 51.111 63.9001 51.128 63.7001 51.128C62.6801 51.128 62.17 50.711 62.17 49.646V45.716H64.3501ZM71.51 46.799C71.51 47.298 71.2301 47.548 70.6801 47.548H69.5801C68.0101 47.548 65.88 48.197 65.88 50.262V50.362C65.88 51.128 66.16 51.76 66.73 52.243C67.3 52.726 68.01 52.976 68.88 52.976C70.08 52.976 70.94 52.526 71.49 51.611V52.826H73.4401V47.165C73.4401 46.549 73.34 46.016 73.14 45.566C72.59 44.351 71.4801 43.751 69.8101 43.751C68.0001 43.751 66.73 44.501 66.03 46.016L67.55 46.882C68 45.933 68.75 45.466 69.76 45.466C70.88 45.466 71.51 46.066 71.51 46.799ZM71.49 49.23C71.49 50.562 70.63 51.394 69.28 51.394C68.43 51.394 67.86 50.911 67.86 50.179C67.86 49.796 68.05 49.496 68.4 49.28C68.76 49.063 69.1601 48.946 69.5801 48.946H71.49V49.23ZM76.01 52.826H77.99V39.272H76.01V52.826ZM94.54 43.835C94.54 42.719 94.16 41.753 93.39 40.971C92.64 40.188 91.49 39.789 89.98 39.789H85.37V52.826H87.41V47.997H89.73C91.24 47.997 92.41 47.598 93.26 46.815C94.11 46.016 94.54 45.017 94.54 43.835ZM89.8 41.687C90.76 41.687 91.4401 41.903 91.8401 42.336C92.2601 42.769 92.4601 43.285 92.4601 43.885C92.4601 45.084 91.61 46.116 89.8 46.116H87.41V41.687H89.8ZM101.26 43.901C101.14 43.868 100.99 43.851 100.78 43.851C99.7 43.851 98.8801 44.351 98.3301 45.35V43.935H96.4V52.826H98.38V48.314C98.38 46.765 99.1801 45.883 100.69 45.883C100.91 45.883 101.09 45.899 101.26 45.933V43.901ZM106.84 43.751C105.54 43.751 104.42 44.201 103.51 45.084C102.59 45.966 102.12 47.065 102.12 48.364C102.12 49.662 102.57 50.761 103.49 51.644C104.41 52.526 105.52 52.976 106.82 52.976C108.14 52.976 109.23 52.526 110.13 51.644C111.05 50.745 111.5 49.646 111.5 48.33C111.5 47.032 111.05 45.949 110.13 45.067C109.22 44.184 108.12 43.751 106.84 43.751ZM104.89 46.366C105.39 45.816 106.04 45.55 106.82 45.55C107.6 45.55 108.25 45.816 108.73 46.366C109.23 46.915 109.48 47.581 109.48 48.364C109.48 49.146 109.23 49.812 108.75 50.362C108.27 50.911 107.62 51.178 106.84 51.178C106.05 51.178 105.4 50.895 104.91 50.345C104.41 49.779 104.16 49.113 104.16 48.33C104.16 47.548 104.41 46.898 104.89 46.366ZM112.95 48.364C112.95 49.596 113.37 50.678 114.2 51.594C115.04 52.51 116.08 52.959 117.33 52.959C117.8 52.959 118.33 52.843 118.93 52.593C119.55 52.343 120 51.96 120.31 51.444V52.826H122.25V39.272H120.26V45.2C119.96 44.717 119.53 44.368 118.95 44.134C118.38 43.885 117.87 43.768 117.38 43.768C116.07 43.768 114.99 44.234 114.17 45.167C113.35 46.099 112.95 47.165 112.95 48.364ZM117.63 45.55C118.42 45.55 119.05 45.816 119.55 46.366C120.05 46.915 120.3 47.581 120.3 48.364C120.3 49.146 120.05 49.812 119.55 50.362C119.06 50.895 118.42 51.161 117.63 51.161C116.85 51.161 116.2 50.895 115.7 50.362C115.22 49.812 114.97 49.146 114.97 48.364C114.97 47.581 115.22 46.915 115.7 46.366C116.2 45.816 116.85 45.55 117.63 45.55ZM124.8 43.935V49.396C124.8 51.527 125.99 53.009 128.13 53.009C129.27 53.009 130.17 52.543 130.85 51.627V52.826H132.78V43.935H130.8V48.88C130.8 50.229 130 51.128 128.75 51.128C127.43 51.128 126.79 50.245 126.79 48.913V43.935H124.8ZM139.47 52.976C140.55 52.976 141.43 52.71 142.12 52.177C142.8 51.644 143.28 51.011 143.53 50.295L141.8 49.529C141.38 50.628 140.62 51.178 139.5 51.178C138.75 51.178 138.12 50.911 137.62 50.378C137.12 49.846 136.87 49.163 136.87 48.33C136.87 47.515 137.12 46.849 137.62 46.332C138.14 45.816 138.75 45.55 139.49 45.55C140.62 45.55 141.38 46.099 141.77 47.182L143.47 46.416C142.93 44.834 141.47 43.751 139.47 43.751C138.15 43.751 137.06 44.201 136.17 45.117C135.29 46.033 134.84 47.115 134.84 48.364C134.84 49.679 135.29 50.778 136.17 51.661C137.06 52.543 138.15 52.976 139.47 52.976ZM150.29 45.716V43.935H148.1V41.187H146.12V43.935H144.49V45.716H146.12V49.962C146.12 51.894 147.26 52.926 149.2 52.926C149.59 52.926 149.95 52.859 150.27 52.743V51.061C150.05 51.111 149.84 51.128 149.64 51.128C148.62 51.128 148.1 50.711 148.1 49.646V45.716H150.29Z" fill="#161E2E"/>
<path d="M261.141 35.901H242.64C240.597 35.901 238.94 37.5576 238.94 39.6012V58.1019C238.94 60.1455 240.597 61.8021 242.64 61.8021H261.141C263.185 61.8021 264.841 60.1455 264.841 58.1019V39.6012C264.841 37.5576 263.185 35.901 261.141 35.901Z" fill="#F4FBF7"/>
<path d="M251.89 47.927C251.71 47.927 251.53 47.981 251.37 48.082C251.22 48.184 251.1 48.329 251.03 48.498C250.96 48.667 250.95 48.853 250.98 49.032C251.02 49.212 251.11 49.376 251.23 49.506C251.36 49.635 251.53 49.723 251.71 49.759C251.89 49.795 252.07 49.776 252.24 49.706C252.41 49.636 252.56 49.518 252.66 49.366C252.76 49.213 252.81 49.035 252.81 48.852C252.81 48.606 252.72 48.371 252.54 48.198C252.37 48.024 252.13 47.927 251.89 47.927ZM248.65 47.927C248.47 47.927 248.29 47.981 248.14 48.082C247.99 48.184 247.87 48.329 247.8 48.498C247.73 48.667 247.71 48.853 247.74 49.032C247.78 49.212 247.87 49.376 248 49.506C248.13 49.635 248.29 49.723 248.47 49.759C248.65 49.795 248.84 49.776 249.01 49.706C249.17 49.636 249.32 49.518 249.42 49.366C249.52 49.213 249.58 49.035 249.58 48.852C249.58 48.606 249.48 48.371 249.31 48.198C249.13 48.024 248.9 47.927 248.65 47.927ZM255.13 47.927C254.94 47.927 254.76 47.981 254.61 48.082C254.46 48.184 254.34 48.329 254.27 48.498C254.2 48.667 254.18 48.853 254.22 49.032C254.25 49.212 254.34 49.376 254.47 49.506C254.6 49.635 254.77 49.723 254.95 49.759C255.13 49.795 255.31 49.776 255.48 49.706C255.65 49.636 255.79 49.518 255.9 49.366C256 49.213 256.05 49.035 256.05 48.852C256.05 48.606 255.95 48.371 255.78 48.198C255.61 48.024 255.37 47.927 255.13 47.927Z" fill="#00B871"/>
<path d="M38.36 100.142L39.63 102.229L43.53 99.876V114.328H46.26V96.945H43.67L38.36 100.142ZM51.2101 117.925C52.8301 116.771 53.9 114.972 53.9 113.196V113.085C53.9 111.598 52.9901 110.554 51.8301 110.554C50.6601 110.554 49.8401 111.398 49.8401 112.486C49.8401 113.529 50.64 114.306 51.55 114.306C51.79 114.306 52.0101 114.262 52.2101 114.173C51.7501 115.261 51.01 116.171 50.01 116.859L51.2101 117.925ZM53.9301 100.142L55.1901 102.229L59.1001 99.876V114.328H61.8301V96.945H59.23L53.9301 100.142ZM77.17 109.444C77.17 107.491 76.17 106.136 74.17 105.359V105.337C75.93 104.493 76.79 103.161 76.79 101.363C76.79 100.053 76.2601 98.965 75.2201 98.055C74.1701 97.145 72.75 96.701 70.98 96.701C68.02 96.701 65.96 98.299 65.16 100.608L67.53 101.696C68.24 100.031 69.3801 99.187 70.9301 99.187C72.8801 99.187 74.02 100.231 74.02 101.652C74.02 102.362 73.73 102.984 73.13 103.494C72.55 104.005 71.8201 104.249 70.9301 104.249H69.2201V106.714H71.0901C72.0401 106.714 72.82 106.98 73.42 107.513C74.04 108.023 74.3501 108.667 74.3501 109.4C74.3501 110.11 74.04 110.732 73.39 111.265C72.75 111.775 71.97 112.042 71.04 112.042C69.29 112.042 68.02 111.176 67.27 109.466L64.91 110.621C65.96 113.218 67.98 114.528 71 114.528C72.8 114.528 74.26 114.04 75.42 113.063C76.59 112.064 77.17 110.865 77.17 109.444ZM87.37 96.945L79.0901 107.735V110.488H88.04V114.328H90.7201V110.488H93.3V108.023H90.7201V96.945H87.37ZM88.04 100.031V108.023H81.89L88.04 100.031Z" fill="#161E2E"/>
<path d="M100.02 105.456C100.02 105.811 100.31 106.1 100.67 106.1C101.03 106.1 101.32 105.811 101.32 105.456C101.32 105.09 101.03 104.801 100.67 104.801C100.31 104.801 100.02 105.09 100.02 105.456ZM101.11 107.576H100.23V113.504H101.11V107.576ZM105.14 113.548C105.39 113.548 105.63 113.515 105.82 113.46V112.738C105.69 112.771 105.52 112.782 105.28 112.782C104.64 112.782 104.32 112.505 104.32 111.95V108.342H105.82V107.576H104.32V105.867H103.46V107.576H102.36V108.342H103.46V111.972C103.46 113.027 104.02 113.548 105.14 113.548ZM112.4 110.806C112.41 110.751 112.41 110.651 112.41 110.518C112.41 109.619 112.17 108.897 111.68 108.331C111.19 107.765 110.5 107.476 109.61 107.476C108.8 107.476 108.12 107.776 107.56 108.387C107.01 108.997 106.73 109.708 106.73 110.529C106.73 111.384 107.02 112.116 107.59 112.716C108.17 113.304 108.88 113.604 109.74 113.604C110.8 113.604 111.75 113.049 112.24 112.072L111.6 111.65C111.26 112.361 110.56 112.838 109.72 112.838C109.15 112.838 108.66 112.649 108.26 112.261C107.86 111.872 107.64 111.384 107.6 110.806H112.4ZM107.62 110.074C107.69 109.563 107.92 109.13 108.29 108.775C108.67 108.409 109.11 108.231 109.61 108.231C110.72 108.231 111.41 108.964 111.53 110.074H107.62ZM118.8 113.504V110.096C118.8 109.574 118.94 109.141 119.24 108.797C119.54 108.442 119.94 108.264 120.44 108.264C121.47 108.264 121.97 108.986 121.97 110.052V113.504H122.84V109.841C122.84 108.42 122.04 107.476 120.65 107.476C119.78 107.476 119.08 107.865 118.57 108.653C118.2 107.865 117.57 107.465 116.67 107.465C115.82 107.465 115.26 107.843 114.76 108.609V107.576H113.9V113.504H114.77V110.129C114.77 109.619 114.91 109.175 115.21 108.808C115.51 108.442 115.91 108.253 116.41 108.253C117.43 108.253 117.94 108.997 117.94 110.029V113.504H118.8ZM128.65 111.817C128.65 111.45 128.51 111.117 128.23 110.84C127.91 110.507 127.39 110.263 126.68 110.107C125.58 109.874 125.29 109.663 125.29 109.175C125.29 108.919 125.41 108.708 125.64 108.52C125.88 108.331 126.16 108.242 126.49 108.242C127.1 108.242 127.56 108.575 127.87 109.241L128.58 108.853C128.19 107.931 127.49 107.476 126.49 107.476C125.95 107.476 125.48 107.643 125.05 107.976C124.63 108.309 124.42 108.731 124.42 109.241C124.42 109.585 124.53 109.874 124.74 110.129C125.07 110.496 125.48 110.684 126.29 110.862C127.36 111.117 127.77 111.373 127.77 111.872C127.77 112.46 127.19 112.838 126.51 112.838C125.81 112.838 125.28 112.449 124.91 111.683L124.2 112.072C124.66 113.093 125.43 113.604 126.52 113.604C127.13 113.604 127.64 113.437 128.04 113.104C128.45 112.76 128.65 112.338 128.65 111.817Z" fill="#9BA4B0"/>
<path d="M41.02 154.454V156.729H42.27V154.454H44.5901V153.244H42.27V151.001H41.02V153.244H38.7001V154.454H41.02ZM44.8401 150.813L45.4701 151.856L47.4301 150.679V157.906H48.79V149.214H47.49L44.8401 150.813ZM50.48 153.554C50.48 154.831 50.81 155.886 51.49 156.74C52.17 157.584 53.04 158.006 54.12 158.006C55.2 158.006 56.08 157.584 56.76 156.729C57.44 155.874 57.78 154.809 57.78 153.532C57.78 152.267 57.45 151.212 56.77 150.369C56.1 149.514 55.22 149.092 54.14 149.092C53.07 149.092 52.19 149.525 51.5 150.38C50.82 151.234 50.48 152.289 50.48 153.554ZM56.37 153.554C56.37 154.454 56.17 155.22 55.76 155.83C55.35 156.441 54.82 156.751 54.14 156.751C53.46 156.751 52.92 156.441 52.51 155.819C52.1 155.197 51.9 154.431 51.9 153.532C51.9 152.633 52.1 151.878 52.5 151.268C52.91 150.657 53.44 150.346 54.12 150.346C54.8 150.346 55.34 150.657 55.75 151.279C56.16 151.901 56.37 152.655 56.37 153.554ZM62.7001 151.09C62.7001 150.546 62.51 150.08 62.12 149.703C61.73 149.314 61.28 149.125 60.73 149.125C60.19 149.125 59.7301 149.314 59.3401 149.703C58.9701 150.091 58.78 150.546 58.78 151.09C58.78 151.634 58.9701 152.089 59.3401 152.478C59.7301 152.866 60.19 153.055 60.73 153.055C61.28 153.055 61.73 152.866 62.12 152.478C62.51 152.089 62.7001 151.634 62.7001 151.09ZM66.7001 149.214H65.41L59.74 157.906H61.05L66.7001 149.214ZM60.73 150.247C61.21 150.247 61.5901 150.635 61.5901 151.09C61.5901 151.545 61.21 151.934 60.73 151.934C60.28 151.934 59.89 151.568 59.89 151.09C59.89 150.613 60.28 150.247 60.73 150.247ZM65.7201 154.043C65.1701 154.043 64.7101 154.232 64.3201 154.62C63.9401 155.009 63.75 155.464 63.75 156.008C63.75 156.552 63.9401 157.007 64.3301 157.395C64.7201 157.773 65.1701 157.961 65.7201 157.961C66.2601 157.961 66.7201 157.773 67.0901 157.395C67.4801 157.007 67.67 156.552 67.67 156.008C67.67 155.464 67.4801 155.009 67.0901 154.62C66.7201 154.232 66.2601 154.043 65.7201 154.043ZM66.3201 156.607C65.9901 156.929 65.45 156.929 65.11 156.607C64.78 156.263 64.78 155.741 65.11 155.419C65.45 155.075 65.9901 155.075 66.3201 155.419C66.6401 155.741 66.6401 156.263 66.3201 156.607ZM75.13 153.166V151.978H73.67V150.147H72.3501V151.978H71.26V153.166H72.3501V155.997C72.3501 157.284 73.11 157.972 74.4 157.972C74.66 157.972 74.9 157.928 75.11 157.85V156.729C74.97 156.763 74.8301 156.774 74.6901 156.774C74.0201 156.774 73.67 156.496 73.67 155.786V153.166H75.13ZM81.8301 157.906V154.254C81.8301 152.833 81.06 151.856 79.61 151.856C78.89 151.856 78.2901 152.145 77.8301 152.733V148.87H76.51V157.906H77.8301V154.609C77.8301 153.71 78.3701 153.11 79.2001 153.11C80.0801 153.11 80.51 153.699 80.51 154.587V157.906H81.8301ZM83.5801 150.668C83.9301 151.012 84.46 151.012 84.8 150.668C85.15 150.324 85.15 149.791 84.8 149.447C84.46 149.092 83.9301 149.092 83.5801 149.447C83.2401 149.791 83.2401 150.324 83.5801 150.668ZM84.86 151.978H83.54V157.906H84.86V151.978ZM88.55 158.006C89.21 158.006 89.76 157.839 90.17 157.495C90.58 157.151 90.79 156.707 90.79 156.163C90.79 155.242 90.08 154.598 88.74 154.298C87.97 154.132 87.64 153.932 87.64 153.543C87.64 153.221 88.0601 152.966 88.4701 152.966C89.0401 152.966 89.4501 153.233 89.7101 153.765L90.73 153.188C90.32 152.3 89.58 151.856 88.51 151.856C87.94 151.856 87.44 152.023 87 152.367C86.57 152.711 86.36 153.144 86.36 153.677C86.36 154.098 86.51 154.454 86.78 154.753C87.1 155.097 87.6 155.331 88.26 155.464C89.07 155.63 89.48 155.897 89.48 156.241C89.48 156.64 89.05 156.896 88.55 156.896C87.92 156.896 87.45 156.574 87.13 155.941L86.0901 156.518C86.5501 157.506 87.37 158.006 88.55 158.006ZM102.41 151.978L101.16 156.174H101.14L99.79 151.978H98.4601L97.11 156.163H97.1001L95.86 151.978H94.4701L96.37 157.906H97.7201L99.1001 153.743H99.12L100.49 157.906H101.86L103.76 151.978H102.41ZM110.2 155.331C110.21 155.231 110.22 155.097 110.22 154.92C110.22 153.999 109.97 153.266 109.46 152.7C108.95 152.134 108.24 151.856 107.34 151.856C106.48 151.856 105.77 152.156 105.21 152.755C104.64 153.355 104.35 154.076 104.35 154.931C104.35 155.808 104.65 156.552 105.24 157.14C105.84 157.728 106.58 158.017 107.46 158.017C108.53 158.017 109.49 157.506 109.99 156.585L109.04 155.952C108.72 156.563 108.18 156.874 107.44 156.874C106.98 156.874 106.58 156.729 106.24 156.441C105.9 156.141 105.72 155.775 105.71 155.331H110.2ZM107.34 152.988C108.18 152.988 108.84 153.499 108.88 154.332H105.77C105.9 153.521 106.53 152.988 107.34 152.988ZM117.03 155.331C117.04 155.231 117.05 155.097 117.05 154.92C117.05 153.999 116.8 153.266 116.29 152.7C115.78 152.134 115.07 151.856 114.17 151.856C113.31 151.856 112.6 152.156 112.04 152.755C111.47 153.355 111.18 154.076 111.18 154.931C111.18 155.808 111.48 156.552 112.07 157.14C112.67 157.728 113.41 158.017 114.29 158.017C115.36 158.017 116.32 157.506 116.82 156.585L115.87 155.952C115.54 156.563 115.01 156.874 114.27 156.874C113.81 156.874 113.41 156.729 113.07 156.441C112.73 156.141 112.55 155.775 112.54 155.331H117.03ZM114.17 152.988C115.01 152.988 115.67 153.499 115.71 154.332H112.6C112.73 153.521 113.36 152.988 114.17 152.988ZM118.41 157.906H119.73V155.009H119.77L122.24 157.906H123.98L121.16 154.665L123.84 151.978H122.04L119.74 154.309H119.73V148.87H118.41V157.906Z" fill="#00B871"/>
<path d="M190.36 112.5C169.8 117.068 183.1 139.883 158.51 158.883V177.432H287.04V81.313C256.86 84.665 259.66 132.909 236.19 137.089C217.28 140.456 205.45 109.147 190.36 112.5Z" fill="url(#paint0_linear_1_1432)"/>
<path d="M158.51 157.873C183.1 138.873 169.8 116.059 190.36 111.49C205.45 108.137 217.28 139.446 236.19 136.079C259.66 131.899 256.86 83.655 287.04 80.303" stroke="#00B871" stroke-width="2.26688" stroke-linecap="round"/>
</g>
<defs>
<filter id="filter0_d_1_1432" x="0" y="0" width="304.174" height="213.308" filterUnits="userSpaceOnUse" color-interpolation-filters="sRGB">
<feFlood flood-opacity="0" result="BackgroundImageFix"/>
<feColorMatrix in="SourceAlpha" type="matrix" values="0 0 0 0 0 0 0 0 0 0 0 0 0 0 0 0 0 0 127 0" result="hardAlpha"/>
<feOffset dy="6"/>
<feGaussianBlur stdDeviation="8"/>
<feComposite in2="hardAlpha" operator="out"/>
<feColorMatrix type="matrix" values="0 0 0 0 0.184314 0 0 0 0 0.87451 0 0 0 0 0.517647 0 0 0 0.15 0"/>
<feBlend mode="normal" in2="BackgroundImageFix" result="effect1_dropShadow_1_1432"/>
<feBlend mode="normal" in="SourceGraphic" in2="effect1_dropShadow_1_1432" result="shape"/>
</filter>
<linearGradient id="paint0_linear_1_1432" x1="221.45" y1="104.648" x2="230.2" y2="176.529" gradientUnits="userSpaceOnUse">
<stop stop-color="#CBF7E1"/>
<stop offset="1" stop-color="white" stop-opacity="0"/>
</linearGradient>
</defs>
</svg>
