<svg width="45" height="45" viewBox="0 0 45 45" fill="none" xmlns="http://www.w3.org/2000/svg">
<path d="M37 0H8C3.58172 0 0 3.58172 0 8V37C0 41.4183 3.58172 45 8 45H37C41.4183 45 45 41.4183 45 37V8C45 3.58172 41.4183 0 37 0Z" fill="#F4FBF7"/>
<path d="M29.71 17.21C29.617 17.12 29.507 17.04 29.385 16.99C29.263 16.94 29.132 16.9099 29 16.9099C28.868 16.9099 28.737 16.94 28.616 16.99C28.494 17.04 28.383 17.12 28.29 17.21L20.84 24.6699L17.71 21.53C17.614 21.44 17.5 21.3598 17.375 21.3098C17.25 21.2598 17.117 21.24 16.982 21.24C16.848 21.24 16.716 21.2698 16.593 21.3298C16.47 21.3798 16.358 21.46 16.265 21.55C16.172 21.65 16.099 21.7599 16.049 21.8899C16 22.0099 15.976 22.15 15.978 22.28C15.981 22.42 16.009 22.5499 16.063 22.6699C16.116 22.7899 16.194 22.91 16.29 23L20.13 26.8398C20.223 26.9298 20.334 27.0098 20.456 27.0598C20.577 27.1098 20.708 27.1299 20.84 27.1299C20.972 27.1299 21.103 27.1098 21.225 27.0598C21.347 27.0098 21.457 26.9298 21.55 26.8398L29.71 18.6799C29.812 18.5899 29.893 18.4699 29.948 18.3499C30.003 18.2199 30.032 18.0799 30.032 17.9399C30.032 17.8099 30.003 17.67 29.948 17.54C29.893 17.42 29.812 17.3 29.71 17.21Z" fill="#00B871"/>
</svg>
