<svg width="44" height="45" viewBox="0 0 44 45" fill="none" xmlns="http://www.w3.org/2000/svg">
<path d="M27.297 41.6399H7.19701V11.6899H11.904V16.22C11.904 16.7 12.297 17.1001 12.783 17.1001C13.268 17.1001 13.662 16.7 13.662 16.22V11.6899H25.716V16.22C25.716 16.7 26.109 17.1001 26.594 17.1001C27.08 17.1001 27.473 16.7 27.473 16.22V11.6899H32.034V21H33.791V10.8101C33.791 10.3301 33.398 9.92993 32.913 9.92993H27.473V7.75C27.473 3.47 23.981 0 19.689 0C18.705 0 17.763 0.18002 16.896 0.52002C16.028 0.18002 15.086 0 14.103 0C9.81001 0 6.31801 3.47 6.31801 7.75V9.92993H0.879013C0.393013 9.92993 0 10.3301 0 10.8101V39.22C0 41.52 1.878 43.3999 4.186 43.3999H29.95C29.082 42.9299 28.162 42.3499 27.297 41.6399ZM19.689 1.76001C23.012 1.76001 25.716 4.44 25.716 7.75V9.92993H21.887V7.75C21.887 5.35 20.791 3.21004 19.073 1.79004C19.276 1.77004 19.481 1.76001 19.689 1.76001ZM16.896 2.43994C18.816 3.43994 20.129 5.44 20.129 7.75V9.92993H13.662V7.75C13.662 5.44 14.975 3.43994 16.896 2.43994ZM8.076 7.75C8.076 4.44 10.779 1.76001 14.103 1.76001C14.31 1.76001 14.516 1.77004 14.718 1.79004C13 3.21004 11.904 5.35 11.904 7.75V9.92993H8.076V7.75ZM5.43901 41.6399H4.186C2.847 41.6399 1.75801 40.55 1.75801 39.22V11.6899H5.43901V41.6399Z" fill="#00B871"/>
<path d="M40.5361 23.9099C37.8791 23.9099 35.5881 22.3699 34.5211 20.1299H31.3961C30.3301 22.3599 28.0381 23.9099 25.3811 23.9099C24.3921 23.9099 23.4531 23.7001 22.6091 23.3101V34.26C22.6091 42.27 32.9591 45 32.9591 45C32.9591 45 43.3091 42.27 43.3091 34.26V23.3101C42.4651 23.7001 41.5261 23.9099 40.5361 23.9099Z" fill="#2FDF84"/>
<path d="M32.619 35.6499C32.387 35.6499 32.164 35.5599 31.999 35.3999L30.089 33.5C29.745 33.16 29.743 32.6 30.086 32.25C30.428 31.91 30.984 31.91 31.328 32.25L32.562 33.4799L35.767 29.6799C36.08 29.3099 36.635 29.26 37.006 29.57C37.377 29.89 37.424 30.44 37.111 30.81L33.291 35.3401C33.132 35.5301 32.903 35.6399 32.657 35.6499C32.644 35.6499 32.632 35.6499 32.619 35.6499Z" fill="#00B871"/>
</svg>
