<svg width="54" height="33" viewBox="0 0 54 33" fill="none" xmlns="http://www.w3.org/2000/svg">
<path d="M53.135 1.6499C52.865 0.999902 52.347 0.479961 51.695 0.209961C51.375 0.0799609 51.03 0 50.682 0H37.349C36.641 0 35.963 0.280029 35.463 0.780029C34.963 1.28003 34.682 1.95992 34.682 2.66992C34.682 3.36992 34.963 4.05005 35.463 4.55005C35.963 5.05005 36.641 5.33008 37.349 5.33008H44.255L29.349 20.24L20.575 11.4399C20.327 11.1899 20.032 10.9901 19.708 10.8601C19.383 10.7201 19.034 10.6499 18.682 10.6499C18.33 10.6499 17.981 10.7201 17.656 10.8601C17.332 10.9901 17.037 11.1899 16.789 11.4399L0.789001 27.4399C0.539001 27.6899 0.340017 27.9801 0.205017 28.3101C0.0700171 28.6301 0 28.9801 0 29.3301C0 29.6901 0.0700171 30.0301 0.205017 30.3601C0.340017 30.6801 0.539001 30.98 0.789001 31.23C1.037 31.48 1.33201 31.6701 1.65601 31.8101C1.98101 31.9501 2.33001 32.02 2.68201 32.02C3.03401 32.02 3.38301 31.9501 3.70801 31.8101C4.03201 31.6701 4.32701 31.48 4.57501 31.23L18.682 17.0901L27.455 25.8899C27.703 26.1399 27.998 26.34 28.323 26.48C28.648 26.61 28.997 26.6799 29.349 26.6799C29.701 26.6799 30.049 26.61 30.374 26.48C30.699 26.34 30.994 26.1399 31.242 25.8899L48.015 9.09009V16C48.015 16.71 48.296 17.3899 48.796 17.8899C49.296 18.3899 49.975 18.6699 50.682 18.6699C51.389 18.6699 52.068 18.3899 52.568 17.8899C53.068 17.3899 53.349 16.71 53.349 16V2.66992C53.344 2.31992 53.272 1.9699 53.135 1.6499Z" fill="#00B871"/>
</svg>
