<svg width="203" height="195" viewBox="0 0 203 195" fill="none" xmlns="http://www.w3.org/2000/svg">
<g filter="url(#filter0_d_1_1493)">
<path d="M168.985 10H34C24.0589 10 16 18.0589 16 28V154.85C16 164.791 24.0589 172.85 34 172.85H168.985C178.926 172.85 186.985 164.791 186.985 154.85V28C186.985 18.0589 178.926 10 168.985 10Z" fill="white"/>
<path d="M34.188 40.373H33.72V44.153L31.05 40.373H30.501V44.898H30.969V41.043L33.68 44.898H34.188V40.373ZM38.058 43.494C38.063 43.465 38.063 43.413 38.063 43.344C38.063 42.876 37.936 42.5 37.682 42.205C37.428 41.91 37.069 41.76 36.607 41.76C36.185 41.76 35.827 41.916 35.538 42.234C35.249 42.552 35.104 42.922 35.104 43.349C35.104 43.795 35.255 44.176 35.555 44.488C35.856 44.794 36.225 44.95 36.671 44.95C37.225 44.95 37.717 44.661 37.977 44.153L37.641 43.933C37.462 44.303 37.098 44.552 36.665 44.552C36.364 44.552 36.11 44.453 35.902 44.251C35.694 44.049 35.578 43.795 35.561 43.494H38.058ZM35.567 43.113C35.607 42.847 35.723 42.621 35.919 42.436C36.116 42.246 36.347 42.153 36.607 42.153C37.185 42.153 37.543 42.535 37.607 43.113H35.567ZM39.437 44.898H39.934L40.755 42.39H40.761L41.576 44.898H42.079L43.119 41.812H42.651L41.836 44.378H41.83L40.986 41.812H40.536L39.697 44.372H39.692L38.883 41.812H38.403L39.437 44.898ZM46.306 44.898H46.785V40.818H48.294V40.373H44.791V40.818H46.306V44.898ZM48.328 41.812V44.898H48.779V43.39C48.779 43.072 48.854 42.806 49.01 42.581C49.166 42.355 49.409 42.24 49.744 42.24C49.785 42.24 49.842 42.246 49.918 42.251V41.772C49.894 41.766 49.842 41.766 49.767 41.766C49.374 41.766 48.987 41.98 48.773 42.425V41.812H48.328ZM51.456 43.118C51.132 43.118 50.849 43.193 50.601 43.338C50.358 43.482 50.237 43.702 50.237 44.008V44.043C50.237 44.303 50.329 44.523 50.52 44.696C50.71 44.864 50.965 44.95 51.271 44.95C51.71 44.95 52.057 44.754 52.311 44.355H52.317V44.898H52.756V42.904C52.756 42.714 52.728 42.546 52.664 42.396C52.479 41.974 52.103 41.76 51.537 41.76C50.924 41.76 50.502 42.026 50.271 42.558L50.641 42.766C50.832 42.361 51.127 42.159 51.525 42.159C52.051 42.159 52.311 42.407 52.311 42.91V43.118H51.456ZM52.311 43.598C52.311 43.881 52.219 44.107 52.04 44.286C51.861 44.465 51.629 44.552 51.352 44.552C50.965 44.552 50.687 44.349 50.687 44.008C50.705 43.604 51.098 43.482 51.45 43.488H52.311V43.598ZM53.972 43.338C53.972 43.008 54.076 42.731 54.284 42.506C54.498 42.274 54.764 42.159 55.088 42.159C55.596 42.159 55.914 42.448 56.053 42.835L56.446 42.662C56.267 42.147 55.781 41.76 55.088 41.76C54.648 41.76 54.273 41.916 53.966 42.222C53.66 42.529 53.51 42.91 53.51 43.355C53.51 43.812 53.66 44.193 53.961 44.5C54.267 44.8 54.637 44.95 55.082 44.95C55.781 44.95 56.267 44.563 56.457 44.031L56.064 43.858C55.885 44.32 55.556 44.552 55.088 44.552C54.758 44.552 54.492 44.43 54.284 44.193C54.076 43.956 53.972 43.667 53.972 43.338ZM57.652 44.898V43.355H57.669L59.206 44.898H59.836L58.137 43.199L59.761 41.812H59.12L57.652 43.066V40.188H57.201V44.898H57.652ZM62.312 44.02C62.312 43.829 62.236 43.656 62.092 43.511C61.924 43.338 61.653 43.211 61.283 43.13C60.711 43.008 60.56 42.899 60.56 42.644C60.56 42.511 60.624 42.402 60.745 42.303C60.867 42.205 61.017 42.159 61.185 42.159C61.502 42.159 61.745 42.332 61.907 42.679L62.277 42.477C62.069 41.997 61.705 41.76 61.185 41.76C60.907 41.76 60.659 41.847 60.439 42.02C60.219 42.194 60.11 42.413 60.11 42.679C60.11 42.858 60.167 43.008 60.277 43.141C60.445 43.332 60.659 43.43 61.081 43.523C61.641 43.656 61.855 43.789 61.855 44.049C61.855 44.355 61.549 44.552 61.196 44.552C60.832 44.552 60.555 44.349 60.364 43.951L59.994 44.153C60.231 44.685 60.635 44.95 61.202 44.95C61.52 44.95 61.786 44.864 61.994 44.69C62.208 44.511 62.312 44.292 62.312 44.02Z" fill="#161E2E"/>
<path d="M35.874 25.726V30.761C35.874 31.957 35.166 32.769 33.991 32.769C32.867 32.769 32.097 31.978 32.097 30.719V25.726H30.818V30.771C30.818 31.718 31.088 32.498 31.619 33.091C32.149 33.684 32.94 33.975 33.97 33.975C35 33.975 35.791 33.684 36.332 33.091C36.883 32.498 37.153 31.697 37.153 30.709V25.726H35.874ZM40.732 33.965C41.357 33.965 41.866 33.809 42.251 33.486C42.636 33.164 42.834 32.748 42.834 32.238C42.834 31.375 42.168 30.771 40.909 30.49C40.191 30.334 39.879 30.147 39.879 29.783C39.879 29.481 40.275 29.242 40.66 29.242C41.19 29.242 41.575 29.492 41.825 29.991L42.782 29.45C42.397 28.618 41.7 28.202 40.701 28.202C40.16 28.202 39.692 28.358 39.286 28.68C38.881 29.003 38.683 29.408 38.683 29.908C38.683 30.303 38.818 30.636 39.078 30.917C39.38 31.239 39.848 31.458 40.462 31.583C41.221 31.739 41.606 31.988 41.606 32.311C41.606 32.685 41.2 32.925 40.732 32.925C40.139 32.925 39.702 32.623 39.401 32.03L38.433 32.571C38.86 33.497 39.63 33.965 40.732 33.965ZM49.263 31.458C49.273 31.364 49.283 31.239 49.283 31.073C49.283 30.209 49.044 29.523 48.566 28.992C48.087 28.462 47.421 28.202 46.579 28.202C45.777 28.202 45.112 28.482 44.581 29.044C44.051 29.606 43.78 30.282 43.78 31.083C43.78 31.905 44.061 32.602 44.612 33.154C45.174 33.705 45.871 33.975 46.693 33.975C47.692 33.975 48.597 33.497 49.065 32.633L48.17 32.04C47.869 32.613 47.369 32.904 46.672 32.904C46.246 32.904 45.871 32.769 45.549 32.498C45.226 32.217 45.06 31.874 45.049 31.458H49.263ZM46.579 29.263C47.369 29.263 47.983 29.741 48.025 30.521H45.112C45.226 29.762 45.819 29.263 46.579 29.263ZM53.593 28.295C53.52 28.274 53.426 28.264 53.291 28.264C52.615 28.264 52.105 28.576 51.762 29.2V28.316H50.555V33.871H51.793V31.052C51.793 30.085 52.292 29.533 53.239 29.533C53.374 29.533 53.489 29.544 53.593 29.564V28.295ZM55.971 33.871H57.282L58.031 31.957H62.026L62.764 33.871H64.096L60.798 25.726H59.29L55.971 33.871ZM60.028 26.953L61.578 30.823H58.488L60.028 26.953ZM67.418 33.965C68.094 33.965 68.645 33.799 69.072 33.466C69.499 33.133 69.8 32.737 69.956 32.29L68.874 31.811C68.614 32.498 68.136 32.841 67.439 32.841C66.971 32.841 66.575 32.675 66.263 32.342C65.951 32.009 65.795 31.583 65.795 31.062C65.795 30.553 65.951 30.137 66.263 29.814C66.586 29.492 66.971 29.325 67.428 29.325C68.136 29.325 68.614 29.668 68.854 30.345L69.915 29.866C69.582 28.878 68.666 28.202 67.418 28.202C66.596 28.202 65.909 28.482 65.358 29.055C64.807 29.627 64.526 30.303 64.526 31.083C64.526 31.905 64.807 32.592 65.358 33.143C65.909 33.694 66.596 33.965 67.418 33.965ZM74.176 29.429V28.316H72.813V26.599H71.575V28.316H70.555V29.429H71.575V32.082C71.575 33.289 72.282 33.934 73.5 33.934C73.739 33.934 73.968 33.892 74.165 33.819V32.769C74.03 32.8 73.895 32.81 73.77 32.81C73.135 32.81 72.813 32.55 72.813 31.884V29.429H74.176ZM75.518 27.088C75.84 27.411 76.34 27.411 76.662 27.088C76.985 26.766 76.985 26.266 76.662 25.944C76.34 25.611 75.84 25.611 75.518 25.944C75.195 26.266 75.195 26.766 75.518 27.088ZM76.714 28.316H75.476V33.871H76.714V28.316ZM77.716 28.316L80.068 33.871H81.306L83.625 28.316H82.325L80.692 32.425L79.058 28.316H77.716ZM84.692 27.088C85.014 27.411 85.514 27.411 85.836 27.088C86.159 26.766 86.159 26.266 85.836 25.944C85.514 25.611 85.014 25.611 84.692 25.944C84.369 26.266 84.369 26.766 84.692 27.088ZM85.888 28.316H84.65V33.871H85.888V28.316ZM90.573 29.429V28.316H89.21V26.599H87.972V28.316H86.953V29.429H87.972V32.082C87.972 33.289 88.68 33.934 89.897 33.934C90.136 33.934 90.365 33.892 90.563 33.819V32.769C90.428 32.8 90.292 32.81 90.167 32.81C89.533 32.81 89.21 32.55 89.21 31.884V29.429H90.573ZM92.623 28.316H91.208L93.684 33.247L92.155 36.607H93.476L97.294 28.316H95.952L94.35 31.957L92.623 28.316Z" fill="#161E2E"/>
<path d="M169.16 27.917H157.601C156.324 27.917 155.289 28.9521 155.289 30.2289V41.7881C155.289 43.0649 156.324 44.1 157.601 44.1H169.16C170.437 44.1 171.472 43.0649 171.472 41.7881V30.2289C171.472 28.9521 170.437 27.917 169.16 27.917Z" fill="#F4FBF7"/>
<path d="M163.381 35.431C163.266 35.431 163.155 35.465 163.06 35.528C162.964 35.592 162.89 35.682 162.847 35.787C162.803 35.893 162.791 36.009 162.814 36.121C162.836 36.233 162.891 36.336 162.972 36.417C163.053 36.498 163.156 36.553 163.268 36.575C163.38 36.598 163.496 36.586 163.602 36.543C163.707 36.499 163.798 36.425 163.861 36.33C163.925 36.235 163.959 36.123 163.959 36.009C163.959 35.855 163.898 35.708 163.789 35.6C163.681 35.492 163.534 35.431 163.381 35.431ZM161.358 35.431C161.243 35.431 161.132 35.465 161.037 35.528C160.942 35.592 160.868 35.682 160.824 35.787C160.78 35.893 160.769 36.009 160.791 36.121C160.813 36.233 160.868 36.336 160.949 36.417C161.03 36.498 161.133 36.553 161.245 36.575C161.357 36.598 161.473 36.586 161.579 36.543C161.685 36.499 161.775 36.425 161.838 36.33C161.902 36.235 161.936 36.123 161.936 36.009C161.936 35.855 161.875 35.708 161.766 35.6C161.658 35.492 161.511 35.431 161.358 35.431ZM165.403 35.431C165.289 35.431 165.177 35.465 165.082 35.528C164.987 35.592 164.913 35.682 164.87 35.787C164.826 35.893 164.814 36.009 164.837 36.121C164.859 36.233 164.914 36.336 164.995 36.417C165.076 36.498 165.179 36.553 165.291 36.575C165.403 36.598 165.519 36.586 165.625 36.543C165.73 36.499 165.821 36.425 165.884 36.33C165.948 36.235 165.981 36.123 165.981 36.009C165.981 35.855 165.921 35.708 165.812 35.6C165.704 35.492 165.557 35.431 165.403 35.431Z" fill="#00B871"/>
<path d="M35.766 64.133H172.998" stroke="#2FDF84" stroke-opacity="0.5" stroke-width="0.231185" stroke-linecap="round" stroke-dasharray="1.73 1.73"/>
<path d="M35.766 81.88H172.998" stroke="#2FDF84" stroke-opacity="0.5" stroke-width="0.231185" stroke-linecap="round" stroke-dasharray="1.73 1.73"/>
<path d="M35.766 99.627H172.998" stroke="#2FDF84" stroke-opacity="0.5" stroke-width="0.231185" stroke-linecap="round" stroke-dasharray="1.73 1.73"/>
<path d="M35.766 117.373H172.998" stroke="#2FDF84" stroke-opacity="0.5" stroke-width="0.231185" stroke-linecap="round" stroke-dasharray="1.73 1.73"/>
<path d="M35.766 135.12H172.998" stroke="#2FDF84" stroke-opacity="0.5" stroke-width="0.231185" stroke-linecap="round" stroke-dasharray="1.73 1.73"/>
<path d="M35.766 152.867H172.998" stroke="#2FDF84" stroke-opacity="0.5" stroke-width="0.231185" stroke-linecap="round" stroke-dasharray="1.73 1.73"/>
<path d="M37.963 158.419H38.157L38.268 158.135H38.861L38.971 158.419H39.168L38.679 157.211H38.455L37.963 158.419ZM38.565 157.393L38.795 157.967H38.336L38.565 157.393ZM40.154 158.004C40.154 157.895 40.117 157.796 40.042 157.71C39.968 157.623 39.871 157.58 39.75 157.58C39.704 157.58 39.655 157.591 39.6 157.614C39.546 157.637 39.505 157.673 39.474 157.723V157.595H39.295V158.825H39.479V158.299C39.508 158.344 39.548 158.376 39.602 158.399C39.656 158.421 39.704 158.432 39.746 158.432C39.864 158.432 39.962 158.39 40.039 158.305C40.116 158.22 40.154 158.12 40.154 158.004ZM39.543 157.821C39.59 157.77 39.65 157.745 39.722 157.745C39.795 157.745 39.855 157.77 39.9 157.821C39.946 157.872 39.969 157.933 39.969 158.006C39.969 158.078 39.946 158.14 39.9 158.191C39.855 158.24 39.795 158.265 39.722 158.265C39.65 158.265 39.59 158.24 39.543 158.191C39.499 158.14 39.476 158.078 39.476 158.006C39.476 157.933 39.499 157.872 39.543 157.821ZM40.796 157.592C40.785 157.589 40.771 157.588 40.751 157.588C40.651 157.588 40.575 157.634 40.524 157.727V157.595H40.345V158.419H40.529V158.001C40.529 157.858 40.603 157.776 40.743 157.776C40.764 157.776 40.78 157.777 40.796 157.781V157.592ZM41.265 158.419H42.115V158.248H41.533L41.814 158.015C41.921 157.927 41.996 157.852 42.041 157.788C42.086 157.723 42.109 157.646 42.109 157.558C42.109 157.45 42.07 157.362 41.993 157.296C41.916 157.228 41.817 157.194 41.699 157.194C41.595 157.194 41.506 157.22 41.43 157.274C41.356 157.328 41.307 157.399 41.282 157.487L41.452 157.558C41.5 157.432 41.581 157.369 41.697 157.369C41.831 157.369 41.913 157.456 41.913 157.572C41.913 157.626 41.898 157.674 41.867 157.717C41.836 157.759 41.779 157.816 41.697 157.885L41.265 158.254V158.419ZM42.287 157.815C42.287 157.992 42.333 158.139 42.427 158.257C42.521 158.375 42.643 158.433 42.793 158.433C42.943 158.433 43.066 158.375 43.16 158.256C43.254 158.137 43.302 157.989 43.302 157.811C43.302 157.636 43.256 157.489 43.162 157.372C43.068 157.253 42.946 157.194 42.796 157.194C42.646 157.194 42.525 157.254 42.429 157.373C42.335 157.492 42.287 157.639 42.287 157.815ZM43.106 157.815C43.106 157.94 43.079 158.046 43.021 158.131C42.964 158.216 42.89 158.259 42.796 158.259C42.702 158.259 42.626 158.216 42.569 158.129C42.512 158.043 42.484 157.936 42.484 157.811C42.484 157.686 42.512 157.581 42.568 157.497C42.625 157.412 42.699 157.369 42.793 157.369C42.887 157.369 42.963 157.412 43.02 157.498C43.077 157.585 43.106 157.69 43.106 157.815ZM43.458 158.419H44.308V158.248H43.726L44.007 158.015C44.113 157.927 44.189 157.852 44.234 157.788C44.279 157.723 44.302 157.646 44.302 157.558C44.302 157.45 44.263 157.362 44.186 157.296C44.109 157.228 44.01 157.194 43.891 157.194C43.788 157.194 43.698 157.22 43.623 157.274C43.549 157.328 43.499 157.399 43.475 157.487L43.644 157.558C43.692 157.432 43.774 157.369 43.89 157.369C44.024 157.369 44.106 157.456 44.106 157.572C44.106 157.626 44.09 157.674 44.059 157.717C44.029 157.759 43.971 157.816 43.89 157.885L43.458 158.254V158.419ZM44.409 157.433L44.497 157.578L44.768 157.415V158.419H44.958V157.211H44.777L44.409 157.433Z" fill="#9BA4B0"/>
<path d="M64.519 158.419H64.707V157.211H64.459L64.0561 158.135H64.0551L63.6461 157.211H63.4031V158.419H63.5901V157.543H63.5931L63.9841 158.419H64.1241L64.5161 157.538H64.519V158.419ZM65.4561 157.861C65.4561 157.907 65.4291 157.93 65.3781 157.93H65.277C65.132 157.93 64.9341 157.99 64.9341 158.182V158.191C64.9341 158.262 64.9601 158.321 65.0131 158.365C65.0651 158.41 65.132 158.433 65.212 158.433C65.323 158.433 65.403 158.392 65.454 158.307V158.419H65.6351V157.895C65.6351 157.838 65.6251 157.788 65.6071 157.747C65.5561 157.634 65.453 157.578 65.298 157.578C65.13 157.578 65.0131 157.648 64.9481 157.788L65.0881 157.869C65.1301 157.781 65.1991 157.737 65.2941 157.737C65.3971 157.737 65.4561 157.793 65.4561 157.861ZM65.454 158.086C65.454 158.21 65.3741 158.287 65.2491 158.287C65.1701 158.287 65.118 158.242 65.118 158.174C65.118 158.139 65.1351 158.111 65.1671 158.091C65.2011 158.071 65.238 158.06 65.277 158.06H65.454V158.086ZM65.9551 157.595H65.7451L66.1121 158.327L65.886 158.825H66.082L66.6481 157.595H66.449L66.2111 158.135L65.9551 157.595ZM67.113 158.419H67.9631V158.248H67.3821L67.6631 158.015C67.7691 157.927 67.845 157.852 67.889 157.788C67.934 157.723 67.957 157.646 67.957 157.558C67.957 157.45 67.919 157.362 67.842 157.296C67.764 157.228 67.6661 157.194 67.5471 157.194C67.4431 157.194 67.3541 157.22 67.2781 157.274C67.2041 157.328 67.1551 157.399 67.1301 157.487L67.3 157.558C67.348 157.432 67.43 157.369 67.545 157.369C67.68 157.369 67.761 157.456 67.761 157.572C67.761 157.626 67.7461 157.674 67.7151 157.717C67.6841 157.759 67.627 157.816 67.545 157.885L67.113 158.254V158.419ZM68.1351 157.815C68.1351 157.992 68.1811 158.139 68.2761 158.257C68.3701 158.375 68.4921 158.433 68.6411 158.433C68.7911 158.433 68.914 158.375 69.009 158.256C69.103 158.137 69.1511 157.989 69.1511 157.811C69.1511 157.636 69.1041 157.489 69.0101 157.372C68.9161 157.253 68.794 157.194 68.644 157.194C68.495 157.194 68.373 157.254 68.277 157.373C68.183 157.492 68.1351 157.639 68.1351 157.815ZM68.9551 157.815C68.9551 157.94 68.9271 158.046 68.8701 158.131C68.8131 158.216 68.738 158.259 68.644 158.259C68.55 158.259 68.4751 158.216 68.4181 158.129C68.3601 158.043 68.3331 157.936 68.3331 157.811C68.3331 157.686 68.3601 157.581 68.4161 157.497C68.4731 157.412 68.5471 157.369 68.6411 157.369C68.7351 157.369 68.811 157.412 68.868 157.498C68.925 157.585 68.9551 157.69 68.9551 157.815ZM69.3061 158.419H70.1561V158.248H69.574L69.855 158.015C69.962 157.927 70.037 157.852 70.082 157.788C70.127 157.723 70.1501 157.646 70.1501 157.558C70.1501 157.45 70.1111 157.362 70.0341 157.296C69.9571 157.228 69.8581 157.194 69.7391 157.194C69.6361 157.194 69.5471 157.22 69.4711 157.274C69.3971 157.328 69.3481 157.399 69.3231 157.487L69.493 157.558C69.54 157.432 69.622 157.369 69.738 157.369C69.872 157.369 69.954 157.456 69.954 157.572C69.954 157.626 69.9391 157.674 69.9081 157.717C69.8771 157.759 69.82 157.816 69.738 157.885L69.3061 158.254V158.419ZM70.2571 157.433L70.345 157.578L70.6161 157.415V158.419H70.8061V157.211H70.626L70.2571 157.433Z" fill="#9BA4B0"/>
<path d="M89.392 157.694C89.502 157.694 89.5899 157.66 89.6589 157.591C89.7289 157.521 89.7639 157.432 89.7639 157.322V156.472H89.5729V157.322C89.5729 157.438 89.5079 157.516 89.3889 157.516C89.3009 157.516 89.2349 157.459 89.1899 157.344L89.033 157.432C89.102 157.6 89.23 157.694 89.392 157.694ZM90.02 156.856V157.362C90.02 157.56 90.1299 157.697 90.3289 157.697C90.4339 157.697 90.517 157.654 90.58 157.569V157.68H90.7589V156.856H90.5759V157.314C90.5759 157.439 90.5019 157.523 90.3859 157.523C90.2639 157.523 90.2039 157.441 90.2039 157.317V156.856H90.02ZM91.7449 157.68V157.172C91.7449 156.975 91.6389 156.839 91.4359 156.839C91.3309 156.839 91.2479 156.882 91.1849 156.967V156.856H91.0059V157.68H91.189V157.222C91.189 157.097 91.264 157.013 91.379 157.013C91.501 157.013 91.5609 157.095 91.5609 157.219V157.68H91.7449ZM92.34 157.68H93.1899V157.509H92.6079L92.8889 157.276C92.9959 157.188 93.071 157.112 93.116 157.049C93.161 156.984 93.184 156.907 93.184 156.819C93.184 156.711 93.1449 156.623 93.0679 156.557C92.9909 156.489 92.8919 156.455 92.7739 156.455C92.6699 156.455 92.5809 156.481 92.5049 156.535C92.4309 156.589 92.3819 156.66 92.3569 156.748L92.5269 156.819C92.5739 156.692 92.6559 156.629 92.7719 156.629C92.9059 156.629 92.9879 156.717 92.9879 156.833C92.9879 156.887 92.973 156.935 92.942 156.978C92.911 157.02 92.8539 157.077 92.7719 157.146L92.34 157.515V157.68ZM93.3619 157.075C93.3619 157.253 93.408 157.399 93.502 157.518C93.596 157.635 93.7179 157.694 93.8679 157.694C94.0179 157.694 94.1409 157.635 94.2349 157.516C94.3289 157.398 94.377 157.25 94.377 157.072C94.377 156.896 94.3309 156.75 94.2369 156.632C94.1429 156.513 94.0209 156.455 93.8709 156.455C93.7209 156.455 93.599 156.515 93.504 156.634C93.41 156.753 93.3619 156.899 93.3619 157.075ZM94.181 157.075C94.181 157.2 94.1529 157.307 94.0959 157.391C94.0389 157.476 93.9649 157.52 93.8709 157.52C93.7769 157.52 93.7009 157.476 93.6439 157.39C93.5869 157.304 93.559 157.197 93.559 157.072C93.559 156.947 93.5869 156.842 93.6429 156.757C93.6999 156.672 93.7739 156.629 93.8679 156.629C93.9619 156.629 94.0379 156.672 94.0949 156.759C94.1519 156.845 94.181 156.95 94.181 157.075ZM94.533 157.68H95.3829V157.509H94.801L95.0819 157.276C95.1879 157.188 95.264 157.112 95.309 157.049C95.354 156.984 95.377 156.907 95.377 156.819C95.377 156.711 95.3379 156.623 95.2609 156.557C95.1839 156.489 95.0849 156.455 94.9659 156.455C94.8629 156.455 94.7729 156.481 94.6979 156.535C94.6239 156.589 94.5739 156.66 94.5499 156.748L94.7189 156.819C94.7669 156.692 94.849 156.629 94.965 156.629C95.099 156.629 95.181 156.717 95.181 156.833C95.181 156.887 95.1649 156.935 95.1339 156.978C95.1039 157.02 95.046 157.077 94.965 157.146L94.533 157.515V157.68ZM95.4839 156.694L95.5709 156.839L95.843 156.675V157.68H96.033V156.472H95.8519L95.4839 156.694Z" fill="#9BA4B0"/>
<path d="M114.678 157.694C114.788 157.694 114.876 157.66 114.945 157.591C115.015 157.521 115.05 157.432 115.05 157.322V156.472H114.859V157.322C114.859 157.438 114.794 157.516 114.675 157.516C114.587 157.516 114.521 157.459 114.476 157.344L114.319 157.432C114.388 157.6 114.516 157.694 114.678 157.694ZM115.306 156.856V157.362C115.306 157.56 115.416 157.697 115.615 157.697C115.72 157.697 115.803 157.654 115.866 157.569V157.68H116.045V156.856H115.862V157.314C115.862 157.439 115.788 157.523 115.672 157.523C115.55 157.523 115.49 157.441 115.49 157.317V156.856H115.306ZM116.292 157.68H116.476V156.424H116.292V157.68ZM117.079 157.68H117.929V157.509H117.348L117.628 157.276C117.735 157.188 117.81 157.112 117.855 157.049C117.9 156.984 117.923 156.907 117.923 156.819C117.923 156.711 117.885 156.623 117.807 156.557C117.73 156.489 117.631 156.455 117.513 156.455C117.409 156.455 117.32 156.481 117.244 156.535C117.17 156.589 117.121 156.66 117.096 156.748L117.266 156.819C117.314 156.692 117.395 156.629 117.511 156.629C117.645 156.629 117.727 156.717 117.727 156.833C117.727 156.887 117.712 156.935 117.681 156.978C117.65 157.02 117.593 157.077 117.511 157.146L117.079 157.515V157.68ZM118.101 157.075C118.101 157.253 118.147 157.399 118.241 157.518C118.335 157.635 118.457 157.694 118.607 157.694C118.757 157.694 118.88 157.635 118.974 157.516C119.068 157.398 119.116 157.25 119.116 157.072C119.116 156.896 119.07 156.75 118.976 156.632C118.882 156.513 118.76 156.455 118.61 156.455C118.46 156.455 118.339 156.515 118.243 156.634C118.149 156.753 118.101 156.899 118.101 157.075ZM118.92 157.075C118.92 157.2 118.893 157.307 118.835 157.391C118.778 157.476 118.704 157.52 118.61 157.52C118.516 157.52 118.44 157.476 118.383 157.39C118.326 157.304 118.298 157.197 118.298 157.072C118.298 156.947 118.326 156.842 118.382 156.757C118.439 156.672 118.513 156.629 118.607 156.629C118.701 156.629 118.777 156.672 118.834 156.759C118.891 156.845 118.92 156.95 118.92 157.075ZM119.272 157.68H120.122V157.509H119.54L119.821 157.276C119.928 157.188 120.003 157.112 120.048 157.049C120.093 156.984 120.116 156.907 120.116 156.819C120.116 156.711 120.077 156.623 120 156.557C119.923 156.489 119.824 156.455 119.705 156.455C119.602 156.455 119.512 156.481 119.437 156.535C119.363 156.589 119.313 156.66 119.289 156.748L119.458 156.819C119.506 156.692 119.588 156.629 119.704 156.629C119.838 156.629 119.92 156.717 119.92 156.833C119.92 156.887 119.904 156.935 119.873 156.978C119.843 157.02 119.786 157.077 119.704 157.146L119.272 157.515V157.68ZM120.223 156.694L120.311 156.839L120.582 156.675V157.68H120.772V156.472H120.591L120.223 156.694Z" fill="#9BA4B0"/>
<path d="M139.106 157.68H139.301L139.412 157.396H140.005L140.114 157.68H140.312L139.822 156.472H139.599L139.106 157.68ZM139.708 156.654L139.938 157.228H139.48L139.708 156.654ZM140.429 156.856V157.362C140.429 157.56 140.539 157.697 140.738 157.697C140.843 157.697 140.926 157.654 140.989 157.569V157.68H141.168V156.856H140.985V157.314C140.985 157.439 140.911 157.523 140.795 157.523C140.673 157.523 140.613 157.441 140.613 157.317V156.856H140.429ZM141.759 157.686C141.802 157.686 141.85 157.675 141.904 157.652C141.958 157.629 142 157.595 142.029 157.547V157.677C142.029 157.842 141.923 157.928 141.779 157.928C141.663 157.928 141.577 157.87 141.52 157.754L141.367 157.842C141.443 158.009 141.582 158.092 141.782 158.092C141.912 158.092 142.015 158.053 142.094 157.978C142.173 157.902 142.213 157.799 142.213 157.669V156.856H142.034V156.981C142.005 156.935 141.963 156.901 141.91 156.878C141.858 156.854 141.81 156.842 141.765 156.842C141.643 156.842 141.545 156.885 141.469 156.972C141.395 157.058 141.358 157.155 141.358 157.265C141.358 157.379 141.395 157.478 141.471 157.561C141.546 157.645 141.643 157.686 141.759 157.686ZM142.032 157.262C142.032 157.334 142.009 157.396 141.963 157.447C141.918 157.496 141.859 157.521 141.787 157.521C141.714 157.521 141.656 157.496 141.609 157.447C141.565 157.396 141.542 157.334 141.542 157.262C141.542 157.189 141.565 157.128 141.609 157.08C141.654 157.03 141.714 157.006 141.787 157.006C141.859 157.006 141.92 157.03 141.964 157.08C142.009 157.129 142.032 157.189 142.032 157.262ZM142.817 157.68H143.667V157.509H143.085L143.366 157.276C143.473 157.188 143.548 157.112 143.593 157.049C143.638 156.984 143.661 156.907 143.661 156.819C143.661 156.711 143.622 156.623 143.545 156.557C143.468 156.489 143.369 156.455 143.251 156.455C143.147 156.455 143.058 156.481 142.982 156.535C142.908 156.589 142.859 156.66 142.834 156.748L143.004 156.819C143.051 156.692 143.133 156.629 143.249 156.629C143.383 156.629 143.465 156.717 143.465 156.833C143.465 156.887 143.45 156.935 143.419 156.978C143.388 157.02 143.331 157.077 143.249 157.146L142.817 157.515V157.68ZM143.839 157.075C143.839 157.253 143.885 157.399 143.979 157.518C144.073 157.635 144.195 157.694 144.345 157.694C144.495 157.694 144.618 157.635 144.712 157.516C144.806 157.398 144.854 157.25 144.854 157.072C144.854 156.896 144.808 156.75 144.714 156.632C144.62 156.513 144.498 156.455 144.348 156.455C144.198 156.455 144.076 156.515 143.981 156.634C143.887 156.753 143.839 156.899 143.839 157.075ZM144.658 157.075C144.658 157.2 144.63 157.307 144.573 157.391C144.516 157.476 144.442 157.52 144.348 157.52C144.254 157.52 144.178 157.476 144.121 157.39C144.064 157.304 144.036 157.197 144.036 157.072C144.036 156.947 144.064 156.842 144.12 156.757C144.177 156.672 144.251 156.629 144.345 156.629C144.439 156.629 144.515 156.672 144.572 156.759C144.629 156.845 144.658 156.95 144.658 157.075ZM145.01 157.68H145.86V157.509H145.278L145.559 157.276C145.665 157.188 145.741 157.112 145.786 157.049C145.831 156.984 145.854 156.907 145.854 156.819C145.854 156.711 145.815 156.623 145.738 156.557C145.661 156.489 145.562 156.455 145.443 156.455C145.34 156.455 145.25 156.481 145.175 156.535C145.101 156.589 145.051 156.66 145.027 156.748L145.196 156.819C145.244 156.692 145.326 156.629 145.442 156.629C145.576 156.629 145.658 156.717 145.658 156.833C145.658 156.887 145.642 156.935 145.611 156.978C145.581 157.02 145.523 157.077 145.442 157.146L145.01 157.515V157.68ZM145.961 156.694L146.048 156.839L146.32 156.675V157.68H146.51V156.472H146.329L145.961 156.694Z" fill="#9BA4B0"/>
<path d="M165.357 158.433C165.482 158.433 165.582 158.399 165.656 158.33C165.73 158.26 165.767 158.179 165.767 158.085C165.767 157.997 165.738 157.924 165.681 157.869C165.624 157.811 165.52 157.76 165.371 157.716C165.222 157.671 165.147 157.622 165.147 157.531C165.147 157.433 165.232 157.365 165.349 157.365C165.465 157.365 165.546 157.423 165.593 157.535L165.75 157.45C165.693 157.301 165.557 157.194 165.354 157.194C165.241 157.194 165.147 157.228 165.068 157.296C164.991 157.362 164.952 157.444 164.952 157.541C164.952 157.634 164.983 157.708 165.045 157.762C165.104 157.815 165.198 157.861 165.329 157.902C165.502 157.956 165.571 158.007 165.571 158.095C165.571 158.196 165.483 158.26 165.36 158.26C165.229 158.26 165.124 158.189 165.073 158.06L164.912 158.143C164.98 158.328 165.145 158.433 165.357 158.433ZM166.722 158.061C166.723 158.048 166.725 158.029 166.725 158.004C166.725 157.876 166.689 157.774 166.618 157.696C166.547 157.617 166.449 157.578 166.324 157.578C166.205 157.578 166.106 157.62 166.027 157.703C165.949 157.787 165.909 157.887 165.909 158.006C165.909 158.128 165.95 158.231 166.032 158.313C166.115 158.395 166.219 158.435 166.341 158.435C166.489 158.435 166.623 158.364 166.692 158.236L166.56 158.148C166.515 158.233 166.441 158.276 166.338 158.276C166.274 158.276 166.219 158.256 166.171 158.216C166.123 158.174 166.098 158.123 166.097 158.061H166.722ZM166.324 157.736C166.441 157.736 166.532 157.807 166.538 157.923H166.106C166.123 157.81 166.211 157.736 166.324 157.736ZM167.346 157.76V157.595H167.144V157.341H166.96V157.595H166.809V157.76H166.96V158.154C166.96 158.333 167.065 158.429 167.246 158.429C167.281 158.429 167.315 158.423 167.344 158.412V158.256C167.324 158.26 167.304 158.262 167.286 158.262C167.192 158.262 167.144 158.223 167.144 158.125V157.76H167.346ZM168.398 158.004C168.398 157.895 168.361 157.796 168.286 157.71C168.212 157.623 168.114 157.58 167.994 157.58C167.948 157.58 167.898 157.591 167.844 157.614C167.79 157.637 167.749 157.673 167.718 157.723V157.595H167.539V158.825H167.723V158.299C167.752 158.344 167.792 158.376 167.846 158.399C167.9 158.421 167.948 158.432 167.99 158.432C168.108 158.432 168.206 158.39 168.283 158.305C168.36 158.22 168.398 158.12 168.398 158.004ZM167.787 157.821C167.834 157.77 167.894 157.745 167.966 157.745C168.039 157.745 168.099 157.77 168.144 157.821C168.19 157.872 168.213 157.933 168.213 158.006C168.213 158.078 168.19 158.14 168.144 158.191C168.099 158.24 168.039 158.265 167.966 158.265C167.894 158.265 167.834 158.24 167.787 158.191C167.743 158.14 167.719 158.078 167.719 158.006C167.719 157.933 167.743 157.872 167.787 157.821ZM168.947 158.419H169.797V158.248H169.215L169.496 158.015C169.603 157.927 169.678 157.852 169.723 157.788C169.768 157.723 169.791 157.646 169.791 157.558C169.791 157.45 169.752 157.362 169.675 157.296C169.598 157.228 169.499 157.194 169.38 157.194C169.277 157.194 169.188 157.22 169.112 157.274C169.038 157.328 168.988 157.399 168.964 157.487L169.134 157.558C169.181 157.432 169.263 157.369 169.379 157.369C169.513 157.369 169.595 157.456 169.595 157.572C169.595 157.626 169.579 157.674 169.549 157.717C169.518 157.759 169.461 157.816 169.379 157.885L168.947 158.254V158.419ZM169.969 157.815C169.969 157.992 170.015 158.139 170.109 158.257C170.203 158.375 170.325 158.433 170.475 158.433C170.625 158.433 170.748 158.375 170.842 158.256C170.936 158.137 170.984 157.989 170.984 157.811C170.984 157.636 170.938 157.489 170.844 157.372C170.75 157.253 170.628 157.194 170.478 157.194C170.328 157.194 170.206 157.254 170.111 157.373C170.017 157.492 169.969 157.639 169.969 157.815ZM170.788 157.815C170.788 157.94 170.76 158.046 170.703 158.131C170.646 158.216 170.572 158.259 170.478 158.259C170.384 158.259 170.308 158.216 170.251 158.129C170.194 158.043 170.166 157.936 170.166 157.811C170.166 157.686 170.194 157.581 170.25 157.497C170.307 157.412 170.381 157.369 170.475 157.369C170.569 157.369 170.645 157.412 170.702 157.498C170.759 157.585 170.788 157.69 170.788 157.815ZM171.139 158.419H171.99V158.248H171.408L171.689 158.015C171.795 157.927 171.871 157.852 171.916 157.788C171.96 157.723 171.984 157.646 171.984 157.558C171.984 157.45 171.945 157.362 171.868 157.296C171.791 157.228 171.692 157.194 171.573 157.194C171.47 157.194 171.38 157.22 171.305 157.274C171.231 157.328 171.181 157.399 171.156 157.487L171.326 157.558C171.374 157.432 171.456 157.369 171.572 157.369C171.706 157.369 171.788 157.456 171.788 157.572C171.788 157.626 171.772 157.674 171.741 157.717C171.71 157.759 171.653 157.816 171.572 157.885L171.139 158.254V158.419ZM172.09 157.433L172.178 157.578L172.45 157.415V158.419H172.64V157.211H172.459L172.09 157.433Z" fill="#9BA4B0"/>
<path d="M31.237 152.166C31.237 152.078 31.209 152.007 31.152 151.953C31.098 151.899 31.01 151.853 30.89 151.816V151.462C30.97 151.479 31.029 151.533 31.064 151.623L31.22 151.538C31.171 151.408 31.058 151.308 30.891 151.288L30.893 151.129H30.769L30.768 151.288C30.671 151.3 30.589 151.339 30.525 151.404C30.462 151.467 30.43 151.542 30.43 151.629C30.43 151.721 30.461 151.794 30.522 151.846C30.576 151.896 30.658 151.939 30.771 151.974V152.334C30.666 152.314 30.592 152.251 30.55 152.141L30.391 152.224C30.451 152.39 30.587 152.49 30.768 152.508L30.769 152.661H30.893L30.891 152.508C30.998 152.496 31.083 152.457 31.144 152.391C31.206 152.325 31.237 152.251 31.237 152.166ZM30.623 151.618C30.623 151.538 30.683 151.476 30.771 151.459V151.777C30.672 151.738 30.623 151.692 30.623 151.618ZM30.888 152.015C30.998 152.058 31.042 152.104 31.042 152.177C31.042 152.258 30.981 152.319 30.888 152.336V152.015ZM31.392 151.899C31.392 152.076 31.439 152.223 31.533 152.342C31.627 152.459 31.749 152.518 31.899 152.518C32.048 152.518 32.172 152.459 32.266 152.34C32.36 152.221 32.408 152.073 32.408 151.896C32.408 151.72 32.361 151.573 32.267 151.456C32.173 151.337 32.051 151.279 31.902 151.279C31.752 151.279 31.63 151.339 31.534 151.458C31.44 151.576 31.392 151.723 31.392 151.899ZM32.212 151.899C32.212 152.024 32.184 152.13 32.127 152.215C32.07 152.3 31.996 152.343 31.902 152.343C31.807 152.343 31.732 152.3 31.675 152.214C31.618 152.127 31.59 152.021 31.59 151.896C31.59 151.771 31.618 151.666 31.673 151.581C31.73 151.496 31.804 151.453 31.899 151.453C31.993 151.453 32.068 151.496 32.125 151.583C32.182 151.669 32.212 151.774 32.212 151.899ZM32.613 152.504H32.796V152.101H32.801L33.145 152.504H33.387L32.995 152.053L33.367 151.68H33.117L32.798 152.004H32.796V151.248H32.613V152.504Z" fill="#9BA4B0"/>
<path d="M30.777 133.679C30.777 133.592 30.749 133.521 30.692 133.467C30.638 133.413 30.55 133.366 30.43 133.329V132.976C30.51 132.993 30.569 133.047 30.604 133.136L30.76 133.051C30.711 132.922 30.598 132.821 30.431 132.801L30.433 132.642H30.309L30.308 132.801C30.211 132.814 30.129 132.852 30.066 132.917C30.002 132.98 29.97 133.056 29.97 133.142C29.97 133.235 30.001 133.308 30.062 133.36C30.116 133.409 30.198 133.453 30.311 133.488V133.848C30.206 133.828 30.132 133.764 30.09 133.655L29.931 133.738C29.991 133.903 30.127 134.004 30.308 134.022L30.309 134.175H30.433L30.431 134.022C30.538 134.01 30.623 133.971 30.684 133.905C30.746 133.838 30.777 133.764 30.777 133.679ZM30.163 133.132C30.163 133.051 30.223 132.99 30.311 132.973V133.291C30.212 133.252 30.163 133.206 30.163 133.132ZM30.428 133.528C30.538 133.571 30.582 133.618 30.582 133.69C30.582 133.772 30.521 133.832 30.428 133.849V133.528ZM30.925 134.017H31.775V133.846H31.193L31.474 133.613C31.581 133.525 31.656 133.45 31.701 133.386C31.746 133.321 31.769 133.244 31.769 133.156C31.769 133.048 31.73 132.96 31.653 132.894C31.576 132.826 31.477 132.792 31.358 132.792C31.255 132.792 31.165 132.818 31.09 132.872C31.016 132.926 30.966 132.997 30.942 133.085L31.111 133.156C31.159 133.03 31.241 132.967 31.357 132.967C31.491 132.967 31.573 133.055 31.573 133.17C31.573 133.224 31.557 133.272 31.527 133.315C31.496 133.357 31.439 133.414 31.357 133.484L30.925 133.852V134.017ZM31.988 134.017H32.172V133.615H32.177L32.521 134.017H32.763L32.371 133.567L32.743 133.193H32.493L32.173 133.517L32.172 132.761H31.988V134.017Z" fill="#9BA4B0"/>
<path d="M30.777 116.672C30.777 116.584 30.749 116.513 30.692 116.459C30.638 116.405 30.55 116.359 30.43 116.322V115.968C30.51 115.985 30.569 116.039 30.604 116.129L30.76 116.044C30.711 115.914 30.598 115.814 30.431 115.794L30.433 115.635H30.309L30.308 115.794C30.211 115.806 30.129 115.845 30.066 115.91C30.002 115.973 29.97 116.049 29.97 116.135C29.97 116.228 30.001 116.3 30.062 116.353C30.116 116.402 30.198 116.445 30.311 116.481V116.84C30.206 116.82 30.132 116.757 30.09 116.647L29.931 116.731C29.991 116.896 30.127 116.996 30.308 117.015L30.309 117.168H30.433L30.431 117.015C30.538 117.002 30.623 116.964 30.684 116.897C30.746 116.831 30.777 116.757 30.777 116.672ZM30.163 116.124C30.163 116.044 30.223 115.982 30.311 115.965V116.283C30.212 116.245 30.163 116.198 30.163 116.124ZM30.428 116.521C30.538 116.564 30.582 116.61 30.582 116.683C30.582 116.765 30.521 116.825 30.428 116.842V116.521ZM31.474 115.802L30.898 116.552V116.743H31.52V117.01H31.707V116.743H31.886V116.572H31.707V115.802H31.474ZM31.52 116.016V116.572H31.093L31.52 116.016ZM32.073 117.01H32.256V116.607H32.261L32.605 117.01H32.847L32.455 116.56L32.827 116.186H32.577L32.258 116.51H32.256V115.754H32.073V117.01Z" fill="#9BA4B0"/>
<path d="M30.777 98.925C30.777 98.837 30.749 98.766 30.692 98.712C30.638 98.658 30.55 98.612 30.43 98.575V98.222C30.51 98.239 30.569 98.293 30.604 98.382L30.76 98.297C30.711 98.168 30.598 98.067 30.431 98.047L30.433 97.888H30.309L30.308 98.047C30.211 98.06 30.129 98.098 30.066 98.163C30.002 98.226 29.97 98.302 29.97 98.388C29.97 98.481 30.001 98.553 30.062 98.606C30.116 98.655 30.198 98.698 30.311 98.734V99.093C30.206 99.073 30.132 99.01 30.09 98.901L29.931 98.984C29.991 99.149 30.127 99.249 30.308 99.268L30.309 99.421H30.433L30.431 99.268C30.538 99.255 30.623 99.217 30.684 99.151C30.746 99.084 30.777 99.01 30.777 98.925ZM30.163 98.377C30.163 98.297 30.223 98.235 30.311 98.218V98.536C30.212 98.498 30.163 98.451 30.163 98.377ZM30.428 98.774C30.538 98.817 30.582 98.863 30.582 98.936C30.582 99.018 30.521 99.078 30.428 99.095V98.774ZM31.469 98.205C31.537 98.205 31.604 98.231 31.639 98.255C31.658 98.266 31.681 98.283 31.71 98.306L31.806 98.168C31.702 98.081 31.591 98.038 31.469 98.038C31.098 98.038 30.932 98.36 30.932 98.701C30.932 98.908 30.977 99.056 31.068 99.147C31.156 99.235 31.266 99.279 31.397 99.279C31.519 99.279 31.622 99.24 31.707 99.164C31.794 99.089 31.837 98.99 31.837 98.871C31.837 98.755 31.798 98.661 31.723 98.589C31.647 98.516 31.551 98.479 31.435 98.479C31.314 98.479 31.19 98.535 31.122 98.632H31.121C31.128 98.512 31.161 98.41 31.219 98.328C31.28 98.246 31.363 98.205 31.469 98.205ZM31.394 98.644C31.466 98.644 31.525 98.666 31.571 98.709C31.618 98.751 31.641 98.808 31.641 98.877C31.641 99.013 31.536 99.106 31.394 99.106C31.321 99.106 31.261 99.084 31.213 99.043C31.165 99.001 31.141 98.944 31.141 98.873C31.141 98.806 31.165 98.752 31.216 98.709C31.267 98.666 31.326 98.644 31.394 98.644ZM32.03 99.263H32.214V98.86H32.219L32.563 99.263H32.805L32.413 98.813L32.785 98.439H32.535L32.216 98.763H32.214V98.007H32.03V99.263Z" fill="#9BA4B0"/>
<path d="M30.777 81.179C30.777 81.091 30.749 81.02 30.692 80.966C30.638 80.912 30.55 80.865 30.43 80.828V80.475C30.51 80.492 30.569 80.546 30.604 80.635L30.76 80.55C30.711 80.421 30.598 80.321 30.431 80.3L30.433 80.142H30.309L30.308 80.3C30.211 80.313 30.129 80.351 30.066 80.416C30.002 80.479 29.97 80.555 29.97 80.642C29.97 80.734 30.001 80.807 30.062 80.859C30.116 80.908 30.198 80.952 30.311 80.987V81.347C30.206 81.327 30.132 81.263 30.09 81.154L29.931 81.237C29.991 81.402 30.127 81.503 30.308 81.521L30.309 81.674H30.433L30.431 81.521C30.538 81.509 30.623 81.47 30.684 81.404C30.746 81.337 30.777 81.263 30.777 81.179ZM30.163 80.631C30.163 80.55 30.223 80.489 30.311 80.472V80.79C30.212 80.751 30.163 80.705 30.163 80.631ZM30.428 81.027C30.538 81.07 30.582 81.117 30.582 81.189C30.582 81.271 30.521 81.331 30.428 81.348V81.027ZM31.374 81.53C31.5 81.53 31.605 81.498 31.69 81.435C31.775 81.37 31.818 81.285 31.818 81.18C31.818 81.041 31.741 80.944 31.588 80.888C31.713 80.846 31.787 80.748 31.787 80.618C31.787 80.518 31.746 80.439 31.664 80.381C31.582 80.321 31.486 80.291 31.374 80.291C31.264 80.291 31.167 80.321 31.085 80.381C31.003 80.441 30.962 80.52 30.962 80.618C30.962 80.748 31.039 80.851 31.162 80.887C31.008 80.945 30.931 81.044 30.931 81.188C30.931 81.288 30.973 81.371 31.057 81.435C31.142 81.498 31.249 81.53 31.374 81.53ZM31.15 80.637C31.15 80.53 31.243 80.455 31.374 80.455C31.503 80.455 31.599 80.532 31.599 80.637C31.599 80.742 31.503 80.819 31.374 80.819C31.312 80.819 31.26 80.802 31.215 80.768C31.172 80.733 31.15 80.689 31.15 80.637ZM31.121 81.172C31.121 81.115 31.144 81.07 31.192 81.035C31.24 81 31.301 80.981 31.374 80.981C31.445 80.981 31.505 81 31.554 81.037C31.605 81.072 31.63 81.118 31.63 81.172C31.63 81.228 31.605 81.274 31.554 81.311C31.505 81.347 31.445 81.365 31.374 81.365C31.303 81.365 31.243 81.347 31.193 81.31C31.145 81.273 31.121 81.226 31.121 81.172ZM32.021 81.516H32.205V81.114H32.21L32.554 81.516H32.796L32.404 81.066L32.776 80.692H32.526L32.207 81.016H32.205V80.26H32.021V81.516Z" fill="#9BA4B0"/>
<path d="M30.777 63.432C30.777 63.344 30.749 63.273 30.692 63.219C30.638 63.165 30.55 63.118 30.43 63.081V62.728C30.51 62.745 30.569 62.799 30.604 62.888L30.76 62.804C30.711 62.674 30.598 62.574 30.431 62.554L30.433 62.395H30.309L30.308 62.554C30.211 62.566 30.129 62.604 30.066 62.669C30.002 62.733 29.97 62.808 29.97 62.895C29.97 62.987 30.001 63.06 30.062 63.112C30.116 63.162 30.198 63.205 30.311 63.24V63.6C30.206 63.58 30.132 63.516 30.09 63.407L29.931 63.49C29.991 63.655 30.127 63.756 30.308 63.774L30.309 63.927H30.433L30.431 63.774C30.538 63.762 30.623 63.723 30.684 63.657C30.746 63.591 30.777 63.516 30.777 63.432ZM30.163 62.884C30.163 62.804 30.223 62.742 30.311 62.725V63.043C30.212 63.004 30.163 62.958 30.163 62.884ZM30.428 63.28C30.538 63.324 30.582 63.37 30.582 63.442C30.582 63.524 30.521 63.584 30.428 63.601V63.28ZM30.861 62.783L30.949 62.929L31.221 62.765V63.77H31.411V62.561H31.23L30.861 62.783ZM31.638 63.77H32.488V63.598H31.906L32.187 63.365C32.293 63.277 32.369 63.202 32.414 63.138C32.458 63.074 32.482 62.996 32.482 62.908C32.482 62.8 32.443 62.712 32.366 62.646C32.289 62.578 32.19 62.544 32.071 62.544C31.968 62.544 31.878 62.57 31.803 62.624C31.729 62.679 31.679 62.749 31.654 62.837L31.824 62.908C31.872 62.782 31.954 62.719 32.07 62.719C32.204 62.719 32.286 62.807 32.286 62.922C32.286 62.976 32.27 63.024 32.239 63.067C32.208 63.109 32.151 63.166 32.07 63.236L31.638 63.604V63.77ZM32.701 63.77H32.885V63.367H32.889L33.233 63.77H33.476L33.084 63.319L33.456 62.945H33.206L32.886 63.27L32.885 62.513H32.701V63.77Z" fill="#9BA4B0"/>
<path d="M48.366 85.809C48.366 85.17 48.8839 84.653 49.5219 84.653H52.9899C53.6279 84.653 54.1459 85.17 54.1459 85.809V152.648H48.366V85.809Z" fill="#00B871"/>
<path d="M48.366 100.915C48.366 100.277 48.8839 99.759 49.5219 99.759H52.9899C53.6279 99.759 54.1459 100.277 54.1459 100.915V152.932H48.366V100.915Z" fill="#2FDF84"/>
<path d="M61.082 115.557C61.082 114.918 61.5991 114.401 62.2371 114.401H65.7051C66.3441 114.401 66.8611 114.918 66.8611 115.557V152.648H61.082V115.557Z" fill="#2FDF84"/>
<path d="M61.082 124.033C61.082 123.395 61.5991 122.878 62.2371 122.878H65.7051C66.3441 122.878 66.8611 123.395 66.8611 124.033V152.932H61.082V124.033Z" fill="#00B871"/>
<path d="M86.512 131.422C86.512 130.784 87.029 130.266 87.668 130.266H91.1349C91.7739 130.266 92.291 130.784 92.291 131.422V152.931H86.512V131.422Z" fill="#2FDF84"/>
<path d="M86.512 136.171C86.512 135.532 87.029 135.015 87.668 135.015H91.1349C91.7739 135.015 92.291 135.532 92.291 136.171V152.932H86.512V136.171Z" fill="#00B871"/>
<path d="M99.2271 93.401C99.2271 92.763 99.7451 92.245 100.383 92.245H103.851C104.489 92.245 105.007 92.763 105.007 93.401V152.932H99.2271V93.401Z" fill="#00B871"/>
<path d="M99.2271 100.915C99.2271 100.277 99.7451 99.759 100.383 99.759H103.851C104.489 99.759 105.007 100.277 105.007 100.915V152.932H99.2271V100.915Z" fill="#2FDF84"/>
<path d="M73.796 101.674C73.796 101.036 74.314 100.518 74.952 100.518H78.42C79.058 100.518 79.576 101.036 79.576 101.674V152.932H73.796V101.674Z" fill="#00B871"/>
<path d="M73.796 111.896C73.796 111.258 74.314 110.74 74.952 110.74H78.42C79.058 110.74 79.576 111.258 79.576 111.896V152.932H73.796V111.896Z" fill="#2FDF84"/>
<path d="M111.942 65.659C111.942 65.021 112.46 64.503 113.098 64.503H116.566C117.204 64.503 117.722 65.021 117.722 65.659V152.932H111.942V65.659Z" fill="#00B871"/>
<path d="M111.942 82.998C111.942 82.36 112.46 81.842 113.098 81.842H116.566C117.204 81.842 117.722 82.36 117.722 82.998V152.932H111.942V82.998Z" fill="#2FDF84"/>
<path d="M124.657 115.557C124.657 114.918 125.175 114.401 125.813 114.401H129.281C129.919 114.401 130.437 114.918 130.437 115.557V152.648H124.657V115.557Z" fill="#2FDF84"/>
<path d="M124.657 126.345C124.657 125.707 125.175 125.189 125.813 125.189H129.281C129.919 125.189 130.437 125.707 130.437 126.345V152.932H124.657V126.345Z" fill="#00B871"/>
<path d="M150.088 131.422C150.088 130.784 150.605 130.266 151.244 130.266H154.712C155.35 130.266 155.868 130.784 155.868 131.422V152.931H150.088V131.422Z" fill="#2FDF84"/>
<path d="M150.088 136.171C150.088 135.532 150.605 135.015 151.244 135.015H154.712C155.35 135.015 155.868 135.532 155.868 136.171V152.932H150.088V136.171Z" fill="#00B871"/>
<path d="M162.803 81.842C162.803 81.204 163.32 80.686 163.959 80.686H167.426C168.065 80.686 168.582 81.204 168.582 81.842V152.932H162.803V81.842Z" fill="#00B871"/>
<path d="M162.803 87.044C162.803 86.405 163.32 85.888 163.959 85.888H167.426C168.065 85.888 168.582 86.405 168.582 87.044V152.932H162.803V87.044Z" fill="#2FDF84"/>
<path d="M137.373 101.674C137.373 101.036 137.89 100.518 138.528 100.518H141.996C142.635 100.518 143.152 101.036 143.152 101.674V152.932H137.373V101.674Z" fill="#00B871"/>
<path d="M137.373 105.539C137.373 104.9 137.89 104.383 138.528 104.383H141.996C142.635 104.383 143.152 104.9 143.152 105.539V152.932H137.373V105.539Z" fill="#2FDF84"/>
</g>
<defs>
<filter id="filter0_d_1_1493" x="0" y="0" width="202.985" height="194.85" filterUnits="userSpaceOnUse" color-interpolation-filters="sRGB">
<feFlood flood-opacity="0" result="BackgroundImageFix"/>
<feColorMatrix in="SourceAlpha" type="matrix" values="0 0 0 0 0 0 0 0 0 0 0 0 0 0 0 0 0 0 127 0" result="hardAlpha"/>
<feOffset dy="6"/>
<feGaussianBlur stdDeviation="8"/>
<feComposite in2="hardAlpha" operator="out"/>
<feColorMatrix type="matrix" values="0 0 0 0 0.184314 0 0 0 0 0.87451 0 0 0 0 0.517647 0 0 0 0.15 0"/>
<feBlend mode="normal" in2="BackgroundImageFix" result="effect1_dropShadow_1_1493"/>
<feBlend mode="normal" in="SourceGraphic" in2="effect1_dropShadow_1_1493" result="shape"/>
</filter>
</defs>
</svg>
